<svg width="72" height="72" viewBox="0 0 72 72" fill="none" xmlns="http://www.w3.org/2000/svg">
<path fill-rule="evenodd" clip-rule="evenodd" d="M35.9999 61.8499C39.3365 61.8499 42.5254 61.2178 45.4534 60.0667L50.8499 63.1824C51.1902 63.3789 51.6095 63.3789 51.9499 63.1824L58.4709 59.4174C58.8112 59.2209 59.0209 58.8578 59.0209 58.4648V50.935C59.0209 50.542 58.8112 50.1789 58.4709 49.9824L57.9401 49.6759C60.4179 45.709 61.8499 41.0217 61.8499 35.9999C61.8499 21.7233 50.2765 10.1499 35.9999 10.1499C21.7233 10.1499 10.1499 21.7233 10.1499 35.9999C10.1499 50.2765 21.7233 61.8499 35.9999 61.8499ZM43.7789 56.5851C41.3604 57.4995 38.7386 57.9999 35.9999 57.9999C23.8496 57.9999 13.9999 48.1502 13.9999 35.9999C13.9999 23.8496 23.8496 13.9999 35.9999 13.9999C48.1502 13.9999 57.9999 23.8496 57.9999 35.9999C57.9999 40.3204 56.7545 44.35 54.6031 47.7493L51.9499 46.2174C51.6095 46.021 51.1902 46.021 50.8499 46.2174L44.3289 49.9824C43.9885 50.1789 43.7789 50.542 43.7789 50.935V56.5851Z" fill="url(#paint0_linear_3672_2153)"/>
<mask id="mask0_3672_2153" style="mask-type:luminance" maskUnits="userSpaceOnUse" x="10" y="10" width="52" height="54">
<path fill-rule="evenodd" clip-rule="evenodd" d="M35.9999 61.8499C39.3365 61.8499 42.5254 61.2178 45.4534 60.0667L50.8499 63.1824C51.1902 63.3789 51.6095 63.3789 51.9499 63.1824L58.4709 59.4174C58.8112 59.2209 59.0209 58.8578 59.0209 58.4648V50.935C59.0209 50.542 58.8112 50.1789 58.4709 49.9824L57.9401 49.6759C60.4179 45.709 61.8499 41.0217 61.8499 35.9999C61.8499 21.7233 50.2765 10.1499 35.9999 10.1499C21.7233 10.1499 10.1499 21.7233 10.1499 35.9999C10.1499 50.2765 21.7233 61.8499 35.9999 61.8499ZM43.7789 56.5851C41.3604 57.4995 38.7386 57.9999 35.9999 57.9999C23.8496 57.9999 13.9999 48.1502 13.9999 35.9999C13.9999 23.8496 23.8496 13.9999 35.9999 13.9999C48.1502 13.9999 57.9999 23.8496 57.9999 35.9999C57.9999 40.3204 56.7545 44.35 54.6031 47.7493L51.9499 46.2174C51.6095 46.021 51.1902 46.021 50.8499 46.2174L44.3289 49.9824C43.9885 50.1789 43.7789 50.542 43.7789 50.935V56.5851Z" fill="white"/>
</mask>
<g mask="url(#mask0_3672_2153)">
<g style="mix-blend-mode:multiply" opacity="0.3">
<path fill-rule="evenodd" clip-rule="evenodd" d="M44 6L36 35.9999L36 35.9999L9.13001 20.4436L20.4437 9.12994L35.9999 35.9998L28 6H44ZM36 36L20.4437 62.8701L9.12999 51.5564L36 36ZM36 36L6 44L6 28L36 36ZM28 66L36.0001 36L44 66H28ZM36.0001 36L51.5564 9.12994L62.8701 20.4437L36.0001 36ZM36.0001 36L66 28V44L36.0001 36Z" fill="#FFD640"/>
</g>
</g>
<path opacity="0.2" d="M14.604 43.1403C17.5909 52.0946 26.0417 58.5498 36.0001 58.5498C37.3385 58.5498 38.6497 58.4332 39.9241 58.2096" stroke="#EDAA2F" stroke-width="1.1" stroke-linecap="round" stroke-linejoin="round"/>
<path opacity="0.6" d="M24.4282 55.3584C27.8112 57.3849 31.7695 58.5498 35.9999 58.5498" stroke="white" stroke-width="1.1" stroke-linecap="round" stroke-linejoin="round"/>
<path d="M15.9629 51.2754C20.6071 57.372 27.8976 61.3 36.0952 61.3C37.5064 61.3 38.8907 61.1836 40.2393 60.9598" stroke="url(#paint1_linear_3672_2153)" stroke-width="1.1" stroke-linecap="round" stroke-linejoin="round"/>
<path opacity="0.4" d="M61.2997 36.0002C61.2997 22.0274 49.9725 10.7002 35.9997 10.7002C22.0269 10.7002 10.6997 22.0274 10.6997 36.0002" stroke="white" stroke-width="1.1" stroke-linecap="round" stroke-linejoin="round"/>
<path opacity="0.2" d="M15.3228 26.9887C18.8005 19.0199 26.7499 13.4502 36.0001 13.4502C45.2503 13.4502 53.1997 19.0199 56.6775 26.9887" stroke="#DA731B" stroke-width="1.1" stroke-linecap="round" stroke-linejoin="round"/>
<path opacity="0.2" d="M24.4282 16.6416C27.8112 14.6151 31.7695 13.4502 35.9999 13.4502C40.2302 13.4502 44.1886 14.6151 47.5715 16.6416" stroke="#DA731B" stroke-width="1.1" stroke-linecap="round" stroke-linejoin="round"/>
<path opacity="0.4" d="M53.7781 47.9686C53.124 47.5909 51.8158 46.8356 51.8158 46.8356C51.5605 46.6883 51.246 46.6883 50.9908 46.8356C50.2238 47.2784 49.6804 47.5922 49.3605 47.7769C48.6947 48.1612 48.1513 48.475 47.7302 48.7181C47.0057 49.1364 45.9188 49.7639 44.4697 50.6005" stroke="white" stroke-width="1.1" stroke-linecap="round"/>
<path opacity="0.4" d="M58.55 55.0299V58.5046C58.55 58.7026 58.4435 58.8853 58.2713 58.983L51.816 62.6448C51.5607 62.7922 51.2462 62.7922 50.991 62.6448C50.224 62.2021 49.6806 61.8883 49.3607 61.7036C48.695 61.3192 48.1515 61.0055 47.7305 60.7624" stroke="#FDB115" stroke-width="1.1" stroke-linecap="round" stroke-linejoin="round"/>
<path d="M50.9906 46.8354C50.2237 47.2782 49.6803 47.592 49.3604 47.7767" stroke="white" stroke-width="1.1" stroke-linecap="round"/>
<g filter="url(#filter0_d_3672_2153)">
<path fill-rule="evenodd" clip-rule="evenodd" d="M44.1172 52.0323L43.8792 51.9384C43.7336 51.881 43.6621 51.7164 43.7195 51.5708C43.7483 51.4978 43.8061 51.44 43.8792 51.4112L44.1172 51.3173C44.3917 51.2091 44.609 50.9918 44.7172 50.7173L44.8111 50.4793C44.8685 50.3337 45.0331 50.2622 45.1787 50.3196C45.2517 50.3484 45.3095 50.4062 45.3383 50.4793L45.4322 50.7173C45.5404 50.9918 45.7577 51.2091 46.0322 51.3173L46.2702 51.4112C46.4158 51.4686 46.4873 51.6332 46.4299 51.7788C46.4011 51.8518 46.3433 51.9096 46.2702 51.9384L46.0322 52.0323C45.7577 52.1405 45.5404 52.3578 45.4322 52.6323L45.3383 52.8703C45.2809 53.0159 45.1163 53.0874 44.9707 53.03C44.8977 53.0012 44.8399 52.9434 44.8111 52.8703L44.7172 52.6323C44.609 52.3578 44.3917 52.1405 44.1172 52.0323Z" fill="white"/>
</g>
<g filter="url(#filter1_d_3672_2153)">
<path fill-rule="evenodd" clip-rule="evenodd" d="M57.4004 50.7289L57.1148 50.6162C56.9401 50.5473 56.8543 50.3498 56.9232 50.1752C56.9578 50.0875 57.0271 50.0182 57.1148 49.9836L57.4004 49.8709C57.7298 49.741 57.9905 49.4803 58.1205 49.1509L58.2331 48.8653C58.302 48.6906 58.4995 48.6048 58.6742 48.6737C58.7618 48.7083 58.8312 48.7776 58.8657 48.8653L58.9784 49.1509C59.1083 49.4803 59.369 49.741 59.6984 49.8709L59.9841 49.9836C60.1587 50.0525 60.2445 50.25 60.1756 50.4247C60.141 50.5123 60.0717 50.5817 59.9841 50.6162L59.6984 50.7289C59.369 50.8588 59.1083 51.1195 58.9784 51.4489L58.8657 51.7345C58.7968 51.9092 58.5994 51.995 58.4247 51.9261C58.337 51.8915 58.2677 51.8222 58.2331 51.7345L58.1205 51.4489C57.9905 51.1195 57.7298 50.8588 57.4004 50.7289Z" fill="white"/>
</g>
<path fill-rule="evenodd" clip-rule="evenodd" d="M51.4002 57.67L49.2468 58.4358C48.8827 58.5652 48.5021 58.2887 48.5127 57.9024L48.5756 55.6178L47.1818 53.8064C46.9462 53.5001 47.0916 53.0527 47.4622 52.9435L49.6545 52.2972L50.9465 50.412C51.165 50.0932 51.6354 50.0932 51.8539 50.412L53.1459 52.2972L55.3382 52.9435C55.7088 53.0527 55.8542 53.5001 55.6185 53.8064L54.2248 55.6178L54.2877 57.9024C54.2983 58.2887 53.9177 58.5652 53.5536 58.4358L51.4002 57.67Z" fill="url(#paint2_linear_3672_2153)" stroke="white" stroke-width="1.1" stroke-linecap="round" stroke-linejoin="round"/>
<g filter="url(#filter2_d_3672_2153)">
<path fill-rule="evenodd" clip-rule="evenodd" d="M43.6509 60.079L43.3653 59.9663C43.1906 59.8974 43.1048 59.6999 43.1737 59.5252C43.2083 59.4376 43.2776 59.3683 43.3653 59.3337L43.6509 59.221C43.9803 59.0911 44.241 58.8304 44.3709 58.501L44.4836 58.2154C44.5525 58.0407 44.75 57.9549 44.9247 58.0238C45.0123 58.0584 45.0817 58.1277 45.1162 58.2154L45.2289 58.501C45.3588 58.8304 45.6195 59.0911 45.9489 59.221L46.2345 59.3337C46.4092 59.4026 46.495 59.6001 46.4261 59.7748C46.3915 59.8624 46.3222 59.9317 46.2345 59.9663L45.9489 60.079C45.6195 60.2089 45.3588 60.4696 45.2289 60.799L45.1162 61.0846C45.0473 61.2593 44.8498 61.3451 44.6752 61.2762C44.5875 61.2416 44.5182 61.1723 44.4836 61.0846L44.3709 60.799C44.241 60.4696 43.9803 60.2089 43.6509 60.079Z" fill="white"/>
</g>
<g filter="url(#filter3_d_3672_2153)">
<path fill-rule="evenodd" clip-rule="evenodd" d="M56.6001 59.0395L56.4573 58.9832C56.3699 58.9487 56.3271 58.85 56.3615 58.7626C56.3788 58.7188 56.4135 58.6841 56.4573 58.6668L56.6001 58.6105C56.7648 58.5456 56.8952 58.4152 56.9601 58.2505L57.0165 58.1077C57.0509 58.0203 57.1496 57.9775 57.237 58.0119C57.2808 58.0292 57.3155 58.0639 57.3328 58.1077L57.3891 58.2505C57.454 58.4152 57.5844 58.5456 57.7491 58.6105L57.8919 58.6668C57.9793 58.7013 58.0222 58.8 57.9877 58.8874C57.9704 58.9312 57.9357 58.9659 57.8919 58.9832L57.7491 59.0395C57.5844 59.1044 57.454 59.2348 57.3891 59.3995L57.3328 59.5423C57.2983 59.6297 57.1996 59.6725 57.1122 59.6381C57.0684 59.6208 57.0337 59.5861 57.0165 59.5423L56.9601 59.3995C56.8952 59.2348 56.7648 59.1044 56.6001 59.0395Z" fill="white"/>
</g>
<defs>
<filter id="filter0_d_3672_2153" x="42.6997" y="49.2998" width="4.74951" height="4.75" filterUnits="userSpaceOnUse" color-interpolation-filters="sRGB">
<feFlood flood-opacity="0" result="BackgroundImageFix"/>
<feColorMatrix in="SourceAlpha" type="matrix" values="0 0 0 0 0 0 0 0 0 0 0 0 0 0 0 0 0 0 127 0" result="hardAlpha"/>
<feOffset/>
<feGaussianBlur stdDeviation="0.5"/>
<feColorMatrix type="matrix" values="0 0 0 0 1 0 0 0 0 0.94902 0 0 0 0 0.305882 0 0 0 1 0"/>
<feBlend mode="normal" in2="BackgroundImageFix" result="effect1_dropShadow_3672_2153"/>
<feBlend mode="normal" in="SourceGraphic" in2="effect1_dropShadow_3672_2153" result="shape"/>
</filter>
<filter id="filter1_d_3672_2153" x="55.8994" y="47.6499" width="5.2998" height="5.2998" filterUnits="userSpaceOnUse" color-interpolation-filters="sRGB">
<feFlood flood-opacity="0" result="BackgroundImageFix"/>
<feColorMatrix in="SourceAlpha" type="matrix" values="0 0 0 0 0 0 0 0 0 0 0 0 0 0 0 0 0 0 127 0" result="hardAlpha"/>
<feOffset/>
<feGaussianBlur stdDeviation="0.5"/>
<feColorMatrix type="matrix" values="0 0 0 0 1 0 0 0 0 0.94902 0 0 0 0 0.305882 0 0 0 1 0"/>
<feBlend mode="normal" in2="BackgroundImageFix" result="effect1_dropShadow_3672_2153"/>
<feBlend mode="normal" in="SourceGraphic" in2="effect1_dropShadow_3672_2153" result="shape"/>
</filter>
<filter id="filter2_d_3672_2153" x="42.1499" y="57" width="5.30029" height="5.2998" filterUnits="userSpaceOnUse" color-interpolation-filters="sRGB">
<feFlood flood-opacity="0" result="BackgroundImageFix"/>
<feColorMatrix in="SourceAlpha" type="matrix" values="0 0 0 0 0 0 0 0 0 0 0 0 0 0 0 0 0 0 127 0" result="hardAlpha"/>
<feOffset/>
<feGaussianBlur stdDeviation="0.5"/>
<feColorMatrix type="matrix" values="0 0 0 0 1 0 0 0 0 0.94902 0 0 0 0 0.305882 0 0 0 1 0"/>
<feBlend mode="normal" in2="BackgroundImageFix" result="effect1_dropShadow_3672_2153"/>
<feBlend mode="normal" in="SourceGraphic" in2="effect1_dropShadow_3672_2153" result="shape"/>
</filter>
<filter id="filter3_d_3672_2153" x="55.3496" y="57" width="3.65039" height="3.6499" filterUnits="userSpaceOnUse" color-interpolation-filters="sRGB">
<feFlood flood-opacity="0" result="BackgroundImageFix"/>
<feColorMatrix in="SourceAlpha" type="matrix" values="0 0 0 0 0 0 0 0 0 0 0 0 0 0 0 0 0 0 127 0" result="hardAlpha"/>
<feOffset/>
<feGaussianBlur stdDeviation="0.5"/>
<feColorMatrix type="matrix" values="0 0 0 0 1 0 0 0 0 0.94902 0 0 0 0 0.305882 0 0 0 1 0"/>
<feBlend mode="normal" in2="BackgroundImageFix" result="effect1_dropShadow_3672_2153"/>
<feBlend mode="normal" in="SourceGraphic" in2="effect1_dropShadow_3672_2153" result="shape"/>
</filter>
<linearGradient id="paint0_linear_3672_2153" x1="10.1499" y1="10.1499" x2="10.1499" y2="63.3297" gradientUnits="userSpaceOnUse">
<stop stop-color="#F9B800"/>
<stop offset="1" stop-color="#FDE046"/>
</linearGradient>
<linearGradient id="paint1_linear_3672_2153" x1="41.6476" y1="61.1571" x2="41.5295" y2="50.5346" gradientUnits="userSpaceOnUse">
<stop stop-color="#F8C417"/>
<stop offset="1" stop-color="#FFD937"/>
</linearGradient>
<linearGradient id="paint2_linear_3672_2153" x1="46.4502" y1="49.75" x2="46.4502" y2="59.65" gradientUnits="userSpaceOnUse">
<stop stop-color="#FCA50E"/>
<stop offset="1" stop-color="#FFC823"/>
</linearGradient>
</defs>
</svg>
