<svg width="72" height="72" viewBox="0 0 72 72" fill="none" xmlns="http://www.w3.org/2000/svg">
<mask id="mask0_3672_2334" style="mask-type:luminance" maskUnits="userSpaceOnUse" x="6" y="6" width="60" height="60">
<path fill-rule="evenodd" clip-rule="evenodd" d="M66 6H6V66H66V6ZM36 58C48.1502 58 58 48.1502 58 36C58 23.8497 48.1502 14 36 14C23.8497 14 14 23.8497 14 36C14 48.1502 23.8497 58 36 58Z" fill="white"/>
</mask>
<g mask="url(#mask0_3672_2334)">
<path fill-rule="evenodd" clip-rule="evenodd" d="M55.0558 24.0709L59.7 20.7413L59.4451 19.7189L63.9079 16.4224C64.3355 16.1065 64.937 16.4362 64.9007 16.9666L63.5573 36.6262C63.5343 36.9627 63.3495 37.2671 63.0616 37.4427L59.0067 39.9169L55.0558 24.0709Z" fill="url(#paint0_linear_3672_2334)" stroke="url(#paint1_linear_3672_2334)" stroke-width="1.0395" stroke-linecap="round" stroke-linejoin="round"/>
<mask id="mask1_3672_2334" style="mask-type:luminance" maskUnits="userSpaceOnUse" x="54" y="15" width="12" height="26">
<path fill-rule="evenodd" clip-rule="evenodd" d="M55.0558 24.0709L59.7 20.7413L59.4451 19.7189L63.9079 16.4224C64.3355 16.1065 64.937 16.4362 64.9007 16.9666L63.5573 36.6262C63.5343 36.9627 63.3495 37.2671 63.0616 37.4427L59.0067 39.9169L55.0558 24.0709Z" fill="white" stroke="white" stroke-width="1.0395" stroke-linecap="round" stroke-linejoin="round"/>
</mask>
<g mask="url(#mask1_3672_2334)">
<g style="mix-blend-mode:multiply" opacity="0.6" filter="url(#filter0_i_3672_2334)">
<path d="M56.2755 29.778C56.0374 29.9488 55.983 30.2783 56.1541 30.5141C56.3251 30.7498 56.6569 30.8025 56.895 30.6318L61.5392 27.3021C61.7155 27.1757 61.797 26.9557 61.7449 26.7467L61.5749 26.0652L66.838 22.1775C67.0737 22.0034 67.1233 21.6731 66.9488 21.4398C66.7744 21.2066 66.4419 21.1586 66.2062 21.3326L60.6587 25.4305C60.4864 25.5577 60.4077 25.7751 60.4592 25.9814L60.6278 26.6577L56.2755 29.778Z" fill="#FABC10"/>
</g>
<g style="mix-blend-mode:multiply" opacity="0.6" filter="url(#filter1_i_3672_2334)">
<path d="M56.7741 36.1691C56.5359 36.3399 56.4815 36.6694 56.6526 36.9052C56.8237 37.1409 57.1554 37.1936 57.3936 37.0229L62.0377 33.6932C62.2141 33.5668 62.2955 33.3469 62.2434 33.1378L62.0735 32.4563L67.3365 28.5686C67.5722 28.3945 67.6218 28.0643 67.4474 27.831C67.2729 27.5977 66.9404 27.5497 66.7048 27.7238L61.1572 31.8216C60.985 31.9489 60.9063 32.1662 60.9577 32.3725L61.1263 33.0488L56.7741 36.1691Z" fill="#FABC10"/>
</g>
<g opacity="0.2">
<circle cx="28" cy="28" r="28" transform="matrix(-0.978148 -0.207912 -0.207912 0.978148 69.0942 15.3755)" fill="#A4053A" fill-opacity="0.2" style="mix-blend-mode:multiply"/>
</g>
</g>
<path fill-rule="evenodd" clip-rule="evenodd" d="M17.1995 24.0709L12.5553 20.7413L12.8102 19.7189L8.34746 16.4224C7.91984 16.1065 7.31839 16.4362 7.35464 16.9666L8.69809 36.6262C8.72108 36.9627 8.90585 37.2671 9.19373 37.4427L13.2487 39.9169L17.1995 24.0709Z" fill="url(#paint2_linear_3672_2334)" stroke="url(#paint3_linear_3672_2334)" stroke-width="1.0395" stroke-linecap="round" stroke-linejoin="round"/>
<mask id="mask2_3672_2334" style="mask-type:luminance" maskUnits="userSpaceOnUse" x="6" y="15" width="12" height="26">
<path fill-rule="evenodd" clip-rule="evenodd" d="M17.1995 24.0709L12.5553 20.7413L12.8102 19.7189L8.34746 16.4224C7.91984 16.1065 7.31839 16.4362 7.35464 16.9666L8.69809 36.6262C8.72108 36.9627 8.90585 37.2671 9.19373 37.4427L13.2487 39.9169L17.1995 24.0709Z" fill="white" stroke="white" stroke-width="1.0395" stroke-linecap="round" stroke-linejoin="round"/>
</mask>
<g mask="url(#mask2_3672_2334)">
<g style="mix-blend-mode:multiply" opacity="0.6" filter="url(#filter2_i_3672_2334)">
<path d="M15.9798 29.778C16.218 29.9488 16.2724 30.2783 16.1013 30.5141C15.9302 30.7498 15.5985 30.8025 15.3604 30.6318L10.7162 27.3021C10.5398 27.1757 10.4584 26.9557 10.5105 26.7467L10.6804 26.0652L5.41739 22.1775C5.18172 22.0034 5.13208 21.6731 5.30653 21.4398C5.48099 21.2066 5.81346 21.1586 6.04914 21.3326L11.5967 25.4305C11.7689 25.5577 11.8477 25.7751 11.7962 25.9814L11.6276 26.6577L15.9798 29.778Z" fill="#FABC10"/>
</g>
<g style="mix-blend-mode:multiply" opacity="0.6" filter="url(#filter3_i_3672_2334)">
<path d="M15.4813 36.1691C15.7195 36.3399 15.7738 36.6694 15.6028 36.9052C15.4317 37.1409 15.1 37.1936 14.8618 37.0229L10.2176 33.6932C10.0413 33.5668 9.95986 33.3469 10.012 33.1378L10.1819 32.4563L4.91886 28.5686C4.68318 28.3945 4.63355 28.0643 4.808 27.831C4.98245 27.5977 5.31493 27.5497 5.5506 27.7238L11.0981 31.8216C11.2704 31.9489 11.3491 32.1662 11.2977 32.3725L11.1291 33.0488L15.4813 36.1691Z" fill="#FABC10"/>
</g>
<g opacity="0.2">
<circle cx="37.1846" cy="34.4841" r="28" transform="rotate(-1 37.1846 34.4841)" fill="#A4053A" fill-opacity="0.2" style="mix-blend-mode:multiply"/>
</g>
</g>
<path fill-rule="evenodd" clip-rule="evenodd" d="M13.1931 41.2539L10.2887 44.0613C10.0424 44.2993 9.92922 44.6434 9.98607 44.9812L10.9928 50.9621C11.0788 51.473 11.714 51.6624 12.0658 51.282L16.8224 46.1377L13.1931 41.2539Z" fill="url(#paint4_linear_3672_2334)" stroke="url(#paint5_linear_3672_2334)" stroke-width="1.0395" stroke-linecap="round" stroke-linejoin="round"/>
<mask id="mask3_3672_2334" style="mask-type:luminance" maskUnits="userSpaceOnUse" x="9" y="40" width="9" height="13">
<path fill-rule="evenodd" clip-rule="evenodd" d="M13.1931 41.2539L10.2887 44.0613C10.0424 44.2993 9.92922 44.6434 9.98607 44.9812L10.9928 50.9621C11.0788 51.473 11.714 51.6624 12.0658 51.282L16.8224 46.1377L13.1931 41.2539Z" fill="white" stroke="white" stroke-width="1.0395" stroke-linecap="round" stroke-linejoin="round"/>
</mask>
<g mask="url(#mask3_3672_2334)">
<g opacity="0.1">
<path fill-rule="evenodd" clip-rule="evenodd" d="M32.5412 10.8657C34.6825 9.63214 37.3186 9.63215 39.4599 10.8657L57.6769 21.3605C59.8243 22.5976 61.1476 24.8871 61.1476 27.3653V48.3287C61.1476 50.8069 59.8243 53.0965 57.6769 54.3335L39.4599 64.8283C37.3186 66.0619 34.6825 66.0619 32.5412 64.8283L14.3242 54.3335C12.1768 53.0965 10.8535 50.8069 10.8535 48.3287L10.8535 27.3653C10.8535 24.8871 12.1768 22.5976 14.3242 21.3605L32.5412 10.8657Z" fill="#F37E02" style="mix-blend-mode:multiply"/>
</g>
</g>
<path fill-rule="evenodd" clip-rule="evenodd" d="M59.0623 41.2539L61.9667 44.0613C62.213 44.2993 62.3262 44.6434 62.2693 44.9812L61.2626 50.9621C61.1766 51.473 60.5413 51.6624 60.1896 51.282L55.433 46.1377L59.0623 41.2539Z" fill="url(#paint6_linear_3672_2334)" stroke="url(#paint7_linear_3672_2334)" stroke-width="1.0395" stroke-linecap="round" stroke-linejoin="round"/>
<mask id="mask4_3672_2334" style="mask-type:luminance" maskUnits="userSpaceOnUse" x="54" y="40" width="9" height="13">
<path fill-rule="evenodd" clip-rule="evenodd" d="M59.0623 41.2539L61.9667 44.0613C62.213 44.2993 62.3262 44.6434 62.2693 44.9812L61.2626 50.9621C61.1766 51.473 60.5413 51.6624 60.1896 51.282L55.433 46.1377L59.0623 41.2539Z" fill="white" stroke="white" stroke-width="1.0395" stroke-linecap="round" stroke-linejoin="round"/>
</mask>
<g mask="url(#mask4_3672_2334)">
<g opacity="0.1">
<path fill-rule="evenodd" clip-rule="evenodd" d="M39.7142 10.8657C37.5729 9.63214 34.9367 9.63215 32.7955 10.8657L14.5784 21.3605C12.4311 22.5976 11.1078 24.8871 11.1078 27.3653V48.3287C11.1078 50.8069 12.4311 53.0965 14.5784 54.3335L32.7955 64.8283C34.9367 66.0619 37.5729 66.0619 39.7142 64.8283L57.9312 54.3335C60.0785 53.0965 61.4019 50.8069 61.4019 48.3287L61.4019 27.3653C61.4019 24.8871 60.0785 22.5976 57.9312 21.3605L39.7142 10.8657Z" fill="#F37E02" style="mix-blend-mode:multiply"/>
</g>
</g>
<path fill-rule="evenodd" clip-rule="evenodd" d="M30.0212 18.3674C30.0212 19.9727 29.0972 21.4346 27.6471 22.1233L25.5059 23.1403C22.7469 24.4507 19.564 22.4388 19.564 19.3844V14.4119C19.564 13.6634 19.9663 12.9726 20.6175 12.6034L28.469 8.15131C29.1619 7.75837 30.0212 8.25893 30.0212 9.05555V18.3674Z" fill="url(#paint8_linear_3672_2334)"/>
<path opacity="0.4" d="M20.7666 13.113L28.7199 8.604" stroke="#FDEDAC" stroke-width="1.0395" stroke-linecap="round"/>
<path fill-rule="evenodd" clip-rule="evenodd" d="M41.9788 18.3674C41.9788 19.9727 42.9028 21.4346 44.3529 22.1233L46.4941 23.1403C49.2531 24.4507 52.436 22.4388 52.436 19.3844V14.4119C52.436 13.6634 52.0337 12.9726 51.3825 12.6034L43.531 8.15131C42.8381 7.75837 41.9788 8.25893 41.9788 9.05555V18.3674Z" fill="url(#paint9_linear_3672_2334)"/>
<path opacity="0.4" d="M51.2334 13.113L43.2801 8.604" stroke="#FDEDAC" stroke-width="1.0395" stroke-linecap="round"/>
</g>
<path fill-rule="evenodd" clip-rule="evenodd" d="M35.9999 61.8499C39.3365 61.8499 42.5254 61.2178 45.4534 60.0667L50.8499 63.1824C51.1902 63.3789 51.6095 63.3789 51.9499 63.1824L58.4709 59.4174C58.8112 59.2209 59.0209 58.8578 59.0209 58.4648V50.935C59.0209 50.542 58.8112 50.1789 58.4709 49.9824L57.9401 49.6759C60.4179 45.709 61.8499 41.0217 61.8499 35.9999C61.8499 21.7233 50.2765 10.1499 35.9999 10.1499C21.7233 10.1499 10.1499 21.7233 10.1499 35.9999C10.1499 50.2765 21.7233 61.8499 35.9999 61.8499ZM35.9999 59.6499C38.7251 59.6499 41.3427 59.189 43.7789 58.3408V58.3407C41.3427 59.1889 38.7251 59.6498 35.9999 59.6498C22.9383 59.6498 12.3499 49.0614 12.3499 35.9998C12.3499 35.9998 12.3499 35.9999 12.3499 35.9999C12.3499 49.0614 22.9383 59.6499 35.9999 59.6499ZM43.7789 56.5851C41.3604 57.4995 38.7386 57.9999 35.9999 57.9999C23.8496 57.9999 13.9999 48.1502 13.9999 35.9999C13.9999 23.8497 23.8496 13.9999 35.9999 13.9999C48.1502 13.9999 57.9999 23.8497 57.9999 35.9999C57.9999 40.3204 56.7545 44.35 54.6031 47.7493L51.9499 46.2174C51.6095 46.021 51.1902 46.021 50.8499 46.2174L44.3289 49.9824C43.9885 50.1789 43.7789 50.542 43.7789 50.935V56.5851ZM56.0332 48.575L56.0333 48.575C56.8925 47.209 57.6159 45.749 58.1845 44.2139C57.6159 45.749 56.8925 47.209 56.0332 48.575Z" fill="url(#paint10_linear_3672_2334)"/>
<mask id="mask5_3672_2334" style="mask-type:luminance" maskUnits="userSpaceOnUse" x="10" y="10" width="52" height="54">
<path fill-rule="evenodd" clip-rule="evenodd" d="M35.9999 61.8499C39.3365 61.8499 42.5254 61.2178 45.4534 60.0667L50.8499 63.1824C51.1902 63.3789 51.6095 63.3789 51.9499 63.1824L58.4709 59.4174C58.8112 59.2209 59.0209 58.8578 59.0209 58.4648V50.935C59.0209 50.542 58.8112 50.1789 58.4709 49.9824L57.9401 49.6759C60.4179 45.709 61.8499 41.0217 61.8499 35.9999C61.8499 21.7233 50.2765 10.1499 35.9999 10.1499C21.7233 10.1499 10.1499 21.7233 10.1499 35.9999C10.1499 50.2765 21.7233 61.8499 35.9999 61.8499ZM35.9999 59.6499C38.7251 59.6499 41.3427 59.189 43.7789 58.3408V58.3407C41.3427 59.1889 38.7251 59.6498 35.9999 59.6498C22.9383 59.6498 12.3499 49.0614 12.3499 35.9998C12.3499 35.9998 12.3499 35.9999 12.3499 35.9999C12.3499 49.0614 22.9383 59.6499 35.9999 59.6499ZM43.7789 56.5851C41.3604 57.4995 38.7386 57.9999 35.9999 57.9999C23.8496 57.9999 13.9999 48.1502 13.9999 35.9999C13.9999 23.8497 23.8496 13.9999 35.9999 13.9999C48.1502 13.9999 57.9999 23.8497 57.9999 35.9999C57.9999 40.3204 56.7545 44.35 54.6031 47.7493L51.9499 46.2174C51.6095 46.021 51.1902 46.021 50.8499 46.2174L44.3289 49.9824C43.9885 50.1789 43.7789 50.542 43.7789 50.935V56.5851ZM56.0332 48.575L56.0333 48.575C56.8925 47.209 57.6159 45.749 58.1845 44.2139C57.6159 45.749 56.8925 47.209 56.0332 48.575Z" fill="white"/>
</mask>
<g mask="url(#mask5_3672_2334)">
<g style="mix-blend-mode:multiply" opacity="0.3">
<path fill-rule="evenodd" clip-rule="evenodd" d="M44 6L36 35.9999L36 35.9999L9.13001 20.4436L20.4437 9.12994L35.9999 35.9998L28 6H44ZM36 36L20.4437 62.8701L9.12999 51.5564L36 36ZM36 36L6 44L6 28L36 36ZM28 66L36.0001 36L44 66H28ZM36.0001 36L51.5564 9.12994L62.8701 20.4437L36.0001 36ZM36.0001 36L66 28V44L36.0001 36Z" fill="#FFD640"/>
</g>
</g>
<path d="M15.9629 51.2754C20.6071 57.372 27.8976 61.3 36.0952 61.3C37.5064 61.3 38.8907 61.1836 40.2393 60.9598" stroke="url(#paint11_linear_3672_2334)" stroke-width="1.155" stroke-linecap="round" stroke-linejoin="round"/>
<path opacity="0.4" d="M61.3002 36.0002C61.3002 22.0274 49.973 10.7002 36.0002 10.7002C22.0274 10.7002 10.7002 22.0274 10.7002 36.0002" stroke="white" stroke-width="1.1" stroke-linecap="round" stroke-linejoin="round"/>
<path opacity="0.2" d="M14.604 43.1403C17.5909 52.0946 26.0417 58.5498 36.0001 58.5498C37.3385 58.5498 38.6497 58.4332 39.9241 58.2096" stroke="#EDAA2F" stroke-width="1.1" stroke-linecap="round" stroke-linejoin="round"/>
<path opacity="0.6" d="M24.4282 55.3584C27.8112 57.3849 31.7695 58.5498 35.9999 58.5498" stroke="white" stroke-width="1.1" stroke-linecap="round" stroke-linejoin="round"/>
<path opacity="0.2" d="M15.2964 27.0487C18.7604 19.0479 26.7264 13.4502 35.9998 13.4502C45.2733 13.4502 53.2393 19.0479 56.7033 27.0487" stroke="#DA731B" stroke-width="1.1" stroke-linecap="round" stroke-linejoin="round"/>
<path opacity="0.2" d="M24.4282 16.6416C27.8112 14.6151 31.7695 13.4502 35.9999 13.4502C40.2302 13.4502 44.1886 14.6151 47.5715 16.6416" stroke="#DA731B" stroke-width="1.1" stroke-linecap="round" stroke-linejoin="round"/>
<path opacity="0.4" d="M53.9416 48.063C53.233 47.6539 51.8158 46.8356 51.8158 46.8356C51.5605 46.6883 51.246 46.6883 50.9908 46.8356C50.2238 47.2784 49.6804 47.5922 49.3605 47.7769C48.6947 48.1612 48.1513 48.475 47.7302 48.7181C47.0057 49.1364 45.9188 49.7639 44.4697 50.6005" stroke="white" stroke-width="1.1" stroke-linecap="round"/>
<path opacity="0.4" d="M58.55 55.0299V58.5046C58.55 58.7026 58.4435 58.8853 58.2713 58.983L51.816 62.6448C51.5607 62.7922 51.2462 62.7922 50.991 62.6448C50.224 62.2021 49.6806 61.8883 49.3607 61.7036C48.695 61.3192 48.1515 61.0055 47.7305 60.7624" stroke="#FDB115" stroke-width="1.1" stroke-linecap="round" stroke-linejoin="round"/>
<path d="M50.9911 46.8354C50.2242 47.2782 49.6807 47.592 49.3608 47.7767" stroke="white" stroke-width="1.1" stroke-linecap="round"/>
<g filter="url(#filter4_d_3672_2334)">
<path fill-rule="evenodd" clip-rule="evenodd" d="M44.1172 52.0323L43.8792 51.9384C43.7336 51.881 43.6621 51.7164 43.7195 51.5708C43.7483 51.4978 43.8061 51.44 43.8792 51.4112L44.1172 51.3173C44.3917 51.2091 44.609 50.9918 44.7172 50.7173L44.8111 50.4793C44.8685 50.3337 45.0331 50.2622 45.1787 50.3196C45.2517 50.3484 45.3095 50.4062 45.3383 50.4793L45.4322 50.7173C45.5404 50.9918 45.7577 51.2091 46.0322 51.3173L46.2702 51.4112C46.4158 51.4686 46.4873 51.6332 46.4299 51.7788C46.4011 51.8518 46.3433 51.9096 46.2702 51.9384L46.0322 52.0323C45.7577 52.1405 45.5404 52.3578 45.4322 52.6323L45.3383 52.8703C45.2809 53.0159 45.1163 53.0874 44.9707 53.03C44.8977 53.0012 44.8399 52.9434 44.8111 52.8703L44.7172 52.6323C44.609 52.3578 44.3917 52.1405 44.1172 52.0323Z" fill="white"/>
</g>
<g filter="url(#filter5_d_3672_2334)">
<path fill-rule="evenodd" clip-rule="evenodd" d="M57.4009 50.7289L57.1153 50.6162C56.9406 50.5473 56.8548 50.3498 56.9237 50.1752C56.9583 50.0875 57.0276 50.0182 57.1153 49.9836L57.4009 49.8709C57.7303 49.741 57.991 49.4803 58.1209 49.1509L58.2336 48.8653C58.3025 48.6906 58.5 48.6048 58.6747 48.6737C58.7623 48.7083 58.8317 48.7776 58.8662 48.8653L58.9789 49.1509C59.1088 49.4803 59.3695 49.741 59.6989 49.8709L59.9845 49.9836C60.1592 50.0525 60.245 50.25 60.1761 50.4247C60.1415 50.5123 60.0722 50.5817 59.9845 50.6162L59.6989 50.7289C59.3695 50.8588 59.1088 51.1195 58.9789 51.4489L58.8662 51.7345C58.7973 51.9092 58.5998 51.995 58.4252 51.9261C58.3375 51.8915 58.2682 51.8222 58.2336 51.7345L58.1209 51.4489C57.991 51.1195 57.7303 50.8588 57.4009 50.7289Z" fill="white"/>
</g>
<g filter="url(#filter6_d_3672_2334)">
<path fill-rule="evenodd" clip-rule="evenodd" d="M43.6509 60.079L43.3653 59.9663C43.1906 59.8974 43.1048 59.6999 43.1737 59.5252C43.2083 59.4376 43.2776 59.3683 43.3653 59.3337L43.6509 59.221C43.9803 59.0911 44.241 58.8304 44.3709 58.501L44.4836 58.2154C44.5525 58.0407 44.75 57.9549 44.9247 58.0238C45.0123 58.0584 45.0817 58.1277 45.1162 58.2154L45.2289 58.501C45.3588 58.8304 45.6195 59.0911 45.9489 59.221L46.2345 59.3337C46.4092 59.4026 46.495 59.6001 46.4261 59.7748C46.3915 59.8624 46.3222 59.9317 46.2345 59.9663L45.9489 60.079C45.6195 60.2089 45.3588 60.4696 45.2289 60.799L45.1162 61.0846C45.0473 61.2593 44.8498 61.3451 44.6752 61.2762C44.5875 61.2416 44.5182 61.1723 44.4836 61.0846L44.3709 60.799C44.241 60.4696 43.9803 60.2089 43.6509 60.079Z" fill="white"/>
</g>
<g filter="url(#filter7_d_3672_2334)">
<path fill-rule="evenodd" clip-rule="evenodd" d="M56.6001 59.0395L56.4573 58.9832C56.3699 58.9487 56.3271 58.85 56.3615 58.7626C56.3788 58.7188 56.4135 58.6841 56.4573 58.6668L56.6001 58.6105C56.7648 58.5456 56.8952 58.4152 56.9601 58.2505L57.0165 58.1077C57.0509 58.0203 57.1496 57.9775 57.237 58.0119C57.2808 58.0292 57.3155 58.0639 57.3328 58.1077L57.3891 58.2505C57.454 58.4152 57.5844 58.5456 57.7491 58.6105L57.8919 58.6668C57.9793 58.7013 58.0222 58.8 57.9877 58.8874C57.9704 58.9312 57.9357 58.9659 57.8919 58.9832L57.7491 59.0395C57.5844 59.1044 57.454 59.2348 57.3891 59.3995L57.3328 59.5423C57.2983 59.6297 57.1996 59.6725 57.1122 59.6381C57.0684 59.6208 57.0337 59.5861 57.0165 59.5423L56.9601 59.3995C56.8952 59.2348 56.7648 59.1044 56.6001 59.0395Z" fill="white"/>
</g>
<g filter="url(#filter8_d_3672_2334)">
<path d="M48.2204 51.5372L51.0009 49.8615C51.2475 49.7128 51.5519 49.7128 51.7985 49.8615L54.579 51.5372C54.824 51.6849 54.9747 51.9567 54.9747 52.2508V57.1492C54.9747 57.4433 54.824 57.7151 54.579 57.8628L51.7985 59.5385C51.5519 59.6872 51.2475 59.6872 51.0009 59.5385L48.2204 57.8628C47.9755 57.7151 47.8247 57.4433 47.8247 57.1492V52.2508C47.8247 51.9567 47.9755 51.6849 48.2204 51.5372Z" fill="black" fill-opacity="0.01"/>
</g>
<path fill-rule="evenodd" clip-rule="evenodd" d="M50.1357 56.2471L51.3996 57.0205L52.6635 56.2471V53.1533L51.3996 52.3799L50.1357 53.1533V56.2471Z" fill="url(#paint12_linear_3672_2334)"/>
<path fill-rule="evenodd" clip-rule="evenodd" d="M48.6191 52.251L51.3997 50.5752V52.3799L50.1358 53.1533L48.6191 52.251Z" fill="url(#paint13_linear_3672_2334)"/>
<path fill-rule="evenodd" clip-rule="evenodd" d="M48.6191 52.251V57.1494L50.1358 56.2471V53.1533L48.6191 52.251Z" fill="url(#paint14_linear_3672_2334)"/>
<path fill-rule="evenodd" clip-rule="evenodd" d="M51.3997 58.8252L48.6191 57.1494L50.1358 56.2471L51.3997 57.0205V58.8252Z" fill="url(#paint15_linear_3672_2334)"/>
<path fill-rule="evenodd" clip-rule="evenodd" d="M51.3999 58.8252L54.1805 57.1494L52.6638 56.2471L51.3999 57.0205V58.8252Z" fill="url(#paint16_linear_3672_2334)"/>
<path fill-rule="evenodd" clip-rule="evenodd" d="M54.1802 52.251V57.1494L52.6636 56.2471V53.1533L54.1802 52.251Z" fill="url(#paint17_linear_3672_2334)"/>
<path fill-rule="evenodd" clip-rule="evenodd" d="M54.1805 52.251L51.3999 50.5752V52.3799L52.6638 53.1533L54.1805 52.251Z" fill="url(#paint18_linear_3672_2334)"/>
<path d="M48.3352 51.7799C48.1701 51.8794 48.0691 52.0582 48.0691 52.251V57.1494C48.0691 57.3422 48.1701 57.521 48.3352 57.6205L51.1158 59.2963C51.2904 59.4015 51.509 59.4015 51.6836 59.2963L54.4642 57.6205C54.6293 57.521 54.7303 57.3422 54.7303 57.1494V52.251C54.7303 52.0582 54.6293 51.8794 54.4642 51.7799L51.6836 50.1041C51.509 49.9989 51.2904 49.9989 51.1158 50.1041L48.3352 51.7799Z" stroke="white" stroke-width="1.1" stroke-linecap="round" stroke-linejoin="round"/>
<defs>
<filter id="filter0_i_3672_2334" x="56.0542" y="21.228" width="10.999" height="10.5039" filterUnits="userSpaceOnUse" color-interpolation-filters="sRGB">
<feFlood flood-opacity="0" result="BackgroundImageFix"/>
<feBlend mode="normal" in="SourceGraphic" in2="BackgroundImageFix" result="shape"/>
<feColorMatrix in="SourceAlpha" type="matrix" values="0 0 0 0 0 0 0 0 0 0 0 0 0 0 0 0 0 0 127 0" result="hardAlpha"/>
<feOffset dy="1"/>
<feGaussianBlur stdDeviation="0.5"/>
<feComposite in2="hardAlpha" operator="arithmetic" k2="-1" k3="1"/>
<feColorMatrix type="matrix" values="0 0 0 0 0.976471 0 0 0 0 0.713726 0 0 0 0 0.0352941 0 0 0 1 0"/>
<feBlend mode="normal" in2="shape" result="effect1_innerShadow_3672_2334"/>
</filter>
<filter id="filter1_i_3672_2334" x="56.5527" y="27.6191" width="10.999" height="10.5039" filterUnits="userSpaceOnUse" color-interpolation-filters="sRGB">
<feFlood flood-opacity="0" result="BackgroundImageFix"/>
<feBlend mode="normal" in="SourceGraphic" in2="BackgroundImageFix" result="shape"/>
<feColorMatrix in="SourceAlpha" type="matrix" values="0 0 0 0 0 0 0 0 0 0 0 0 0 0 0 0 0 0 127 0" result="hardAlpha"/>
<feOffset dy="1"/>
<feGaussianBlur stdDeviation="0.5"/>
<feComposite in2="hardAlpha" operator="arithmetic" k2="-1" k3="1"/>
<feColorMatrix type="matrix" values="0 0 0 0 0.976471 0 0 0 0 0.713726 0 0 0 0 0.0352941 0 0 0 1 0"/>
<feBlend mode="normal" in2="shape" result="effect1_innerShadow_3672_2334"/>
</filter>
<filter id="filter2_i_3672_2334" x="5.20215" y="21.228" width="10.999" height="10.5039" filterUnits="userSpaceOnUse" color-interpolation-filters="sRGB">
<feFlood flood-opacity="0" result="BackgroundImageFix"/>
<feBlend mode="normal" in="SourceGraphic" in2="BackgroundImageFix" result="shape"/>
<feColorMatrix in="SourceAlpha" type="matrix" values="0 0 0 0 0 0 0 0 0 0 0 0 0 0 0 0 0 0 127 0" result="hardAlpha"/>
<feOffset dy="1"/>
<feGaussianBlur stdDeviation="0.5"/>
<feComposite in2="hardAlpha" operator="arithmetic" k2="-1" k3="1"/>
<feColorMatrix type="matrix" values="0 0 0 0 0.976471 0 0 0 0 0.713726 0 0 0 0 0.0352941 0 0 0 1 0"/>
<feBlend mode="normal" in2="shape" result="effect1_innerShadow_3672_2334"/>
</filter>
<filter id="filter3_i_3672_2334" x="4.70361" y="27.6191" width="10.999" height="10.5039" filterUnits="userSpaceOnUse" color-interpolation-filters="sRGB">
<feFlood flood-opacity="0" result="BackgroundImageFix"/>
<feBlend mode="normal" in="SourceGraphic" in2="BackgroundImageFix" result="shape"/>
<feColorMatrix in="SourceAlpha" type="matrix" values="0 0 0 0 0 0 0 0 0 0 0 0 0 0 0 0 0 0 127 0" result="hardAlpha"/>
<feOffset dy="1"/>
<feGaussianBlur stdDeviation="0.5"/>
<feComposite in2="hardAlpha" operator="arithmetic" k2="-1" k3="1"/>
<feColorMatrix type="matrix" values="0 0 0 0 0.976471 0 0 0 0 0.713726 0 0 0 0 0.0352941 0 0 0 1 0"/>
<feBlend mode="normal" in2="shape" result="effect1_innerShadow_3672_2334"/>
</filter>
<filter id="filter4_d_3672_2334" x="42.6997" y="49.2998" width="4.75" height="4.75" filterUnits="userSpaceOnUse" color-interpolation-filters="sRGB">
<feFlood flood-opacity="0" result="BackgroundImageFix"/>
<feColorMatrix in="SourceAlpha" type="matrix" values="0 0 0 0 0 0 0 0 0 0 0 0 0 0 0 0 0 0 127 0" result="hardAlpha"/>
<feOffset/>
<feGaussianBlur stdDeviation="0.5"/>
<feColorMatrix type="matrix" values="0 0 0 0 1 0 0 0 0 0.94902 0 0 0 0 0.305882 0 0 0 1 0"/>
<feBlend mode="normal" in2="BackgroundImageFix" result="effect1_dropShadow_3672_2334"/>
<feBlend mode="normal" in="SourceGraphic" in2="effect1_dropShadow_3672_2334" result="shape"/>
</filter>
<filter id="filter5_d_3672_2334" x="55.8999" y="47.6499" width="5.2998" height="5.2998" filterUnits="userSpaceOnUse" color-interpolation-filters="sRGB">
<feFlood flood-opacity="0" result="BackgroundImageFix"/>
<feColorMatrix in="SourceAlpha" type="matrix" values="0 0 0 0 0 0 0 0 0 0 0 0 0 0 0 0 0 0 127 0" result="hardAlpha"/>
<feOffset/>
<feGaussianBlur stdDeviation="0.5"/>
<feColorMatrix type="matrix" values="0 0 0 0 1 0 0 0 0 0.94902 0 0 0 0 0.305882 0 0 0 1 0"/>
<feBlend mode="normal" in2="BackgroundImageFix" result="effect1_dropShadow_3672_2334"/>
<feBlend mode="normal" in="SourceGraphic" in2="effect1_dropShadow_3672_2334" result="shape"/>
</filter>
<filter id="filter6_d_3672_2334" x="42.1499" y="57" width="5.2998" height="5.2998" filterUnits="userSpaceOnUse" color-interpolation-filters="sRGB">
<feFlood flood-opacity="0" result="BackgroundImageFix"/>
<feColorMatrix in="SourceAlpha" type="matrix" values="0 0 0 0 0 0 0 0 0 0 0 0 0 0 0 0 0 0 127 0" result="hardAlpha"/>
<feOffset/>
<feGaussianBlur stdDeviation="0.5"/>
<feColorMatrix type="matrix" values="0 0 0 0 1 0 0 0 0 0.94902 0 0 0 0 0.305882 0 0 0 1 0"/>
<feBlend mode="normal" in2="BackgroundImageFix" result="effect1_dropShadow_3672_2334"/>
<feBlend mode="normal" in="SourceGraphic" in2="effect1_dropShadow_3672_2334" result="shape"/>
</filter>
<filter id="filter7_d_3672_2334" x="55.3496" y="57" width="3.6499" height="3.6499" filterUnits="userSpaceOnUse" color-interpolation-filters="sRGB">
<feFlood flood-opacity="0" result="BackgroundImageFix"/>
<feColorMatrix in="SourceAlpha" type="matrix" values="0 0 0 0 0 0 0 0 0 0 0 0 0 0 0 0 0 0 127 0" result="hardAlpha"/>
<feOffset/>
<feGaussianBlur stdDeviation="0.5"/>
<feColorMatrix type="matrix" values="0 0 0 0 1 0 0 0 0 0.94902 0 0 0 0 0.305882 0 0 0 1 0"/>
<feBlend mode="normal" in2="BackgroundImageFix" result="effect1_dropShadow_3672_2334"/>
<feBlend mode="normal" in="SourceGraphic" in2="effect1_dropShadow_3672_2334" result="shape"/>
</filter>
<filter id="filter8_d_3672_2334" x="46.8247" y="49.75" width="9.1499" height="11.8999" filterUnits="userSpaceOnUse" color-interpolation-filters="sRGB">
<feFlood flood-opacity="0" result="BackgroundImageFix"/>
<feColorMatrix in="SourceAlpha" type="matrix" values="0 0 0 0 0 0 0 0 0 0 0 0 0 0 0 0 0 0 127 0" result="hardAlpha"/>
<feOffset dy="1"/>
<feGaussianBlur stdDeviation="0.5"/>
<feColorMatrix type="matrix" values="0 0 0 0 0.996078 0 0 0 0 0.733333 0 0 0 0 0.105882 0 0 0 1 0"/>
<feBlend mode="normal" in2="BackgroundImageFix" result="effect1_dropShadow_3672_2334"/>
<feBlend mode="normal" in="SourceGraphic" in2="effect1_dropShadow_3672_2334" result="shape"/>
</filter>
<linearGradient id="paint0_linear_3672_2334" x1="64.9927" y1="15.6211" x2="70.3454" y2="37.0898" gradientUnits="userSpaceOnUse">
<stop stop-color="#F7C71A"/>
<stop offset="1" stop-color="#FBAA00"/>
</linearGradient>
<linearGradient id="paint1_linear_3672_2334" x1="64.9927" y1="15.6211" x2="70.3454" y2="37.0898" gradientUnits="userSpaceOnUse">
<stop stop-color="#FFDF6B"/>
<stop offset="1" stop-color="#F8A60A"/>
</linearGradient>
<linearGradient id="paint2_linear_3672_2334" x1="7.2627" y1="15.6211" x2="1.90994" y2="37.0898" gradientUnits="userSpaceOnUse">
<stop stop-color="#F7C71A"/>
<stop offset="1" stop-color="#FBAA00"/>
</linearGradient>
<linearGradient id="paint3_linear_3672_2334" x1="7.2627" y1="15.6211" x2="1.90994" y2="37.0898" gradientUnits="userSpaceOnUse">
<stop stop-color="#FFDF6B"/>
<stop offset="1" stop-color="#F8A60A"/>
</linearGradient>
<linearGradient id="paint4_linear_3672_2334" x1="8.30908" y1="42.7471" x2="11.2036" y2="52.2145" gradientUnits="userSpaceOnUse">
<stop stop-color="#F7C71A"/>
<stop offset="1" stop-color="#FBAA00"/>
</linearGradient>
<linearGradient id="paint5_linear_3672_2334" x1="8.30908" y1="42.7471" x2="11.2036" y2="52.2145" gradientUnits="userSpaceOnUse">
<stop stop-color="#FFDF6B"/>
<stop offset="1" stop-color="#F8A60A"/>
</linearGradient>
<linearGradient id="paint6_linear_3672_2334" x1="63.9463" y1="42.7471" x2="61.0518" y2="52.2145" gradientUnits="userSpaceOnUse">
<stop stop-color="#F7C71A"/>
<stop offset="1" stop-color="#FBAA00"/>
</linearGradient>
<linearGradient id="paint7_linear_3672_2334" x1="63.9463" y1="42.7471" x2="61.0518" y2="52.2145" gradientUnits="userSpaceOnUse">
<stop stop-color="#FFDF6B"/>
<stop offset="1" stop-color="#F8A60A"/>
</linearGradient>
<linearGradient id="paint8_linear_3672_2334" x1="19.564" y1="8.02588" x2="19.564" y2="23.8368" gradientUnits="userSpaceOnUse">
<stop stop-color="#FBCC24"/>
<stop offset="1" stop-color="#F9B800"/>
</linearGradient>
<linearGradient id="paint9_linear_3672_2334" x1="52.436" y1="8.02588" x2="52.436" y2="23.8368" gradientUnits="userSpaceOnUse">
<stop stop-color="#FBCC24"/>
<stop offset="1" stop-color="#F9B800"/>
</linearGradient>
<linearGradient id="paint10_linear_3672_2334" x1="10.1499" y1="10.1499" x2="10.1499" y2="63.3297" gradientUnits="userSpaceOnUse">
<stop stop-color="#FFD541"/>
<stop offset="1" stop-color="#FFF550"/>
</linearGradient>
<linearGradient id="paint11_linear_3672_2334" x1="41.6476" y1="61.1571" x2="41.5295" y2="50.5346" gradientUnits="userSpaceOnUse">
<stop stop-color="#F8C417"/>
<stop offset="1" stop-color="#FFD937"/>
</linearGradient>
<linearGradient id="paint12_linear_3672_2334" x1="52.6635" y1="57.0205" x2="52.6635" y2="52.3799" gradientUnits="userSpaceOnUse">
<stop stop-color="#FF7F7D"/>
<stop offset="1" stop-color="#F21248"/>
</linearGradient>
<linearGradient id="paint13_linear_3672_2334" x1="51.6097" y1="52.354" x2="50.8445" y2="50.9287" gradientUnits="userSpaceOnUse">
<stop stop-color="#FFD3D3"/>
<stop offset="1" stop-color="#FF7E8A"/>
</linearGradient>
<linearGradient id="paint14_linear_3672_2334" x1="50.1358" y1="57.1494" x2="50.1358" y2="52.251" gradientUnits="userSpaceOnUse">
<stop stop-color="#FF8B89"/>
<stop offset="1" stop-color="#F34C5D"/>
</linearGradient>
<linearGradient id="paint15_linear_3672_2334" x1="50.7265" y1="58.2799" x2="51.3442" y2="56.9132" gradientUnits="userSpaceOnUse">
<stop stop-color="#FF7F7D"/>
<stop offset="1" stop-color="#F21248"/>
</linearGradient>
<linearGradient id="paint16_linear_3672_2334" x1="54.1805" y1="58.8252" x2="54.1805" y2="56.2471" gradientUnits="userSpaceOnUse">
<stop stop-color="#FF8B89"/>
<stop offset="1" stop-color="#F34C5D"/>
</linearGradient>
<linearGradient id="paint17_linear_3672_2334" x1="54.1802" y1="57.1494" x2="54.1802" y2="52.251" gradientUnits="userSpaceOnUse">
<stop stop-color="#FF8B89"/>
<stop offset="1" stop-color="#F34C5D"/>
</linearGradient>
<linearGradient id="paint18_linear_3672_2334" x1="52.7057" y1="53.1198" x2="53.3989" y2="51.7868" gradientUnits="userSpaceOnUse">
<stop stop-color="#FF7F7D"/>
<stop offset="1" stop-color="#F21248"/>
</linearGradient>
</defs>
</svg>
