<svg width="72" height="72" viewBox="0 0 72 72" fill="none" xmlns="http://www.w3.org/2000/svg">
<mask id="mask0_3672_2195" style="mask-type:luminance" maskUnits="userSpaceOnUse" x="6" y="8" width="59" height="38">
<path fill-rule="evenodd" clip-rule="evenodd" d="M64.5 8.0498H6.5V45.0498H15.9417C14.6943 42.2895 14 39.2257 14 35.9998C14 23.8496 23.8497 13.9998 36 13.9998C48.1503 13.9998 58 23.8496 58 35.9998C58 39.2257 57.3057 42.2895 56.0583 45.0498H64.5V8.0498Z" fill="white"/>
</mask>
<g mask="url(#mask0_3672_2195)">
<path fill-rule="evenodd" clip-rule="evenodd" d="M56.9002 20.96C56.9002 20.4814 57.1953 20.0524 57.6423 19.8813L62.0095 18.2097C62.4632 18.036 62.9502 18.371 62.9502 18.8569V36.7392C62.9502 37.2178 62.655 37.6468 62.2081 37.8179L56.9002 39.8496V20.96Z" fill="url(#paint0_linear_3672_2195)" stroke="url(#paint1_linear_3672_2195)" stroke-width="1.155" stroke-linecap="round" stroke-linejoin="round"/>
<mask id="mask1_3672_2195" style="mask-type:luminance" maskUnits="userSpaceOnUse" x="56" y="17" width="8" height="24">
<path fill-rule="evenodd" clip-rule="evenodd" d="M56.9002 20.96C56.9002 20.4814 57.1953 20.0524 57.6423 19.8813L62.0095 18.2097C62.4632 18.036 62.9502 18.371 62.9502 18.8569V36.7392C62.9502 37.2178 62.655 37.6468 62.2081 37.8179L56.9002 39.8496V20.96Z" fill="white" stroke="white" stroke-width="1.155" stroke-linecap="round" stroke-linejoin="round"/>
</mask>
<g mask="url(#mask1_3672_2195)">
<g opacity="0.2">
<circle cx="27.5" cy="27.5" r="27.5" transform="matrix(-1 0 0 1 63.293 9.29248)" fill="#A4053A" fill-opacity="0.2" style="mix-blend-mode:multiply"/>
</g>
</g>
<path fill-rule="evenodd" clip-rule="evenodd" d="M14.55 20.96C14.55 20.4814 14.2549 20.0524 13.8079 19.8813L9.44073 18.2097C8.98698 18.036 8.5 18.371 8.5 18.8569V36.7392C8.5 37.2178 8.79515 37.6468 9.24211 37.8179L14.55 39.8496V20.96Z" fill="url(#paint2_linear_3672_2195)" stroke="url(#paint3_linear_3672_2195)" stroke-width="1.155" stroke-linecap="round" stroke-linejoin="round"/>
<mask id="mask2_3672_2195" style="mask-type:luminance" maskUnits="userSpaceOnUse" x="7" y="17" width="9" height="24">
<path fill-rule="evenodd" clip-rule="evenodd" d="M14.55 20.96C14.55 20.4814 14.2549 20.0524 13.8079 19.8813L9.44073 18.2097C8.98698 18.036 8.5 18.371 8.5 18.8569V36.7392C8.5 37.2178 8.79515 37.6468 9.24211 37.8179L14.55 39.8496V20.96Z" fill="white" stroke="white" stroke-width="1.155" stroke-linecap="round" stroke-linejoin="round"/>
</mask>
<g mask="url(#mask2_3672_2195)">
<g opacity="0.2">
<circle cx="36" cy="36.7925" r="27.5" fill="#A4053A" fill-opacity="0.2" style="mix-blend-mode:multiply"/>
</g>
</g>
<path fill-rule="evenodd" clip-rule="evenodd" d="M51.3999 10.6143C51.3999 9.83704 50.6477 9.28166 49.9049 9.51046L36.2749 13.7088L22.6449 9.51046C21.9021 9.28166 21.1499 9.83705 21.1499 10.6143V27.695C21.1499 28.3329 21.667 28.85 22.3049 28.85H50.2449C50.8828 28.85 51.3999 28.3329 51.3999 27.695V10.6143Z" fill="url(#paint4_linear_3672_2195)" stroke="url(#paint5_linear_3672_2195)" stroke-width="1.155" stroke-linecap="round" stroke-linejoin="round"/>
</g>
<path fill-rule="evenodd" clip-rule="evenodd" d="M35.9999 61.8499C39.3365 61.8499 42.5254 61.2178 45.4534 60.0667L50.8499 63.1824C51.1902 63.3789 51.6096 63.3789 51.9499 63.1824L58.4709 59.4175C58.8113 59.221 59.0209 58.8578 59.0209 58.4648V50.935C59.0209 50.542 58.8113 50.1789 58.4709 49.9824L57.9401 49.6759C60.4179 45.709 61.8499 41.0217 61.8499 35.9999C61.8499 21.7233 50.2765 10.1499 35.9999 10.1499C21.7233 10.1499 10.1499 21.7233 10.1499 35.9999C10.1499 50.2765 21.7233 61.8499 35.9999 61.8499ZM43.7789 56.5851C41.3604 57.4995 38.7386 57.9999 35.9999 57.9999C23.8497 57.9999 13.9999 48.1502 13.9999 35.9999C13.9999 23.8496 23.8497 13.9999 35.9999 13.9999C48.1502 13.9999 57.9999 23.8496 57.9999 35.9999C57.9999 40.3204 56.7545 44.35 54.6031 47.7493L51.9499 46.2175C51.6096 46.021 51.1902 46.021 50.8499 46.2175L44.3289 49.9824C43.9885 50.1789 43.7789 50.542 43.7789 50.935V56.5851Z" fill="url(#paint6_linear_3672_2195)"/>
<mask id="mask3_3672_2195" style="mask-type:luminance" maskUnits="userSpaceOnUse" x="10" y="10" width="52" height="54">
<path fill-rule="evenodd" clip-rule="evenodd" d="M35.9999 61.8499C39.3365 61.8499 42.5254 61.2178 45.4534 60.0667L50.8499 63.1824C51.1902 63.3789 51.6096 63.3789 51.9499 63.1824L58.4709 59.4175C58.8113 59.221 59.0209 58.8578 59.0209 58.4648V50.935C59.0209 50.542 58.8113 50.1789 58.4709 49.9824L57.9401 49.6759C60.4179 45.709 61.8499 41.0217 61.8499 35.9999C61.8499 21.7233 50.2765 10.1499 35.9999 10.1499C21.7233 10.1499 10.1499 21.7233 10.1499 35.9999C10.1499 50.2765 21.7233 61.8499 35.9999 61.8499ZM43.7789 56.5851C41.3604 57.4995 38.7386 57.9999 35.9999 57.9999C23.8497 57.9999 13.9999 48.1502 13.9999 35.9999C13.9999 23.8496 23.8497 13.9999 35.9999 13.9999C48.1502 13.9999 57.9999 23.8496 57.9999 35.9999C57.9999 40.3204 56.7545 44.35 54.6031 47.7493L51.9499 46.2175C51.6096 46.021 51.1902 46.021 50.8499 46.2175L44.3289 49.9824C43.9885 50.1789 43.7789 50.542 43.7789 50.935V56.5851Z" fill="white"/>
</mask>
<g mask="url(#mask3_3672_2195)">
<g style="mix-blend-mode:multiply" opacity="0.3">
<path fill-rule="evenodd" clip-rule="evenodd" d="M44 7L36 37L36 37L9.12999 21.4436L20.4437 10.1299L36 36.9998L28 7H44ZM36 37L20.4437 63.8701L9.12999 52.5563L36 37ZM36 37L51.5564 10.1299L62.8701 21.4437L36 37ZM36 37L66 29V45L36 37ZM36 37L44 67H28L36 37ZM36 37L6 45L6 29L36 37Z" fill="#FFD640"/>
</g>
</g>
<path opacity="0.2" d="M14.604 43.1403C17.5909 52.0946 26.0417 58.5498 36.0001 58.5498C37.3385 58.5498 38.6497 58.4332 39.9241 58.2096" stroke="#EDAA2F" stroke-width="1.1" stroke-linecap="round" stroke-linejoin="round"/>
<path opacity="0.6" d="M24.4282 55.3584C27.8112 57.3849 31.7695 58.5498 35.9999 58.5498" stroke="white" stroke-width="1.1" stroke-linecap="round" stroke-linejoin="round"/>
<path opacity="0.2" d="M15.2456 27.167C18.682 19.1031 26.6808 13.4502 35.9998 13.4502C45.3189 13.4502 53.3176 19.1031 56.7541 27.167" stroke="#DA731B" stroke-width="1.1" stroke-linecap="round" stroke-linejoin="round"/>
<path opacity="0.2" d="M24.4282 16.6416C27.8112 14.6151 31.7695 13.4502 35.9999 13.4502C40.2302 13.4502 44.1886 14.6151 47.5715 16.6416" stroke="#DA731B" stroke-width="1.1" stroke-linecap="round" stroke-linejoin="round"/>
<path d="M15.9629 51.2754C20.6071 57.372 27.8976 61.3 36.0952 61.3C37.5064 61.3 38.8907 61.1836 40.2393 60.9598" stroke="url(#paint7_linear_3672_2195)" stroke-width="1.155" stroke-linecap="round" stroke-linejoin="round"/>
<path opacity="0.4" d="M61.3002 36.0002C61.3002 22.0274 49.973 10.7002 36.0002 10.7002C22.0274 10.7002 10.7002 22.0274 10.7002 36.0002" stroke="white" stroke-width="1.1" stroke-linecap="round" stroke-linejoin="round"/>
<path opacity="0.4" d="M53.8668 48.0195C53.1833 47.6249 51.8162 46.8356 51.8162 46.8356C51.561 46.6883 51.2465 46.6883 50.9912 46.8356C50.2243 47.2784 49.6809 47.5922 49.361 47.7769C48.6952 48.1612 48.1518 48.475 47.7307 48.7181C47.0062 49.1364 45.9193 49.7639 44.4702 50.6005" stroke="white" stroke-width="1.1" stroke-linecap="round"/>
<path opacity="0.4" d="M58.55 55.0299V58.5046C58.55 58.7026 58.4435 58.8853 58.2713 58.983L51.816 62.6448C51.5607 62.7922 51.2462 62.7922 50.991 62.6448C50.224 62.2021 49.6806 61.8883 49.3607 61.7036C48.695 61.3192 48.1515 61.0055 47.7305 60.7624" stroke="#FDB115" stroke-width="1.1" stroke-linecap="round" stroke-linejoin="round"/>
<path d="M50.9911 46.8354C50.2242 47.2782 49.6807 47.592 49.3608 47.7767" stroke="white" stroke-width="1.1" stroke-linecap="round"/>
<g filter="url(#filter0_d_3672_2195)">
<path fill-rule="evenodd" clip-rule="evenodd" d="M44.1172 52.0323L43.8792 51.9384C43.7336 51.881 43.6621 51.7164 43.7195 51.5708C43.7483 51.4978 43.8061 51.44 43.8792 51.4112L44.1172 51.3173C44.3917 51.2091 44.609 50.9918 44.7172 50.7173L44.8111 50.4793C44.8685 50.3337 45.0331 50.2622 45.1787 50.3196C45.2517 50.3484 45.3095 50.4062 45.3383 50.4793L45.4322 50.7173C45.5404 50.9918 45.7577 51.2091 46.0322 51.3173L46.2702 51.4112C46.4158 51.4686 46.4873 51.6332 46.4299 51.7788C46.4011 51.8518 46.3433 51.9096 46.2702 51.9384L46.0322 52.0323C45.7577 52.1405 45.5404 52.3578 45.4322 52.6323L45.3383 52.8703C45.2809 53.0159 45.1163 53.0874 44.9707 53.03C44.8977 53.0012 44.8399 52.9434 44.8111 52.8703L44.7172 52.6323C44.609 52.3578 44.3917 52.1405 44.1172 52.0323Z" fill="white"/>
</g>
<g filter="url(#filter1_d_3672_2195)">
<path fill-rule="evenodd" clip-rule="evenodd" d="M51.3997 57.67L49.2463 58.4358C48.8822 58.5652 48.5016 58.2887 48.5122 57.9024L48.5751 55.6178L47.1814 53.8064C46.9457 53.5001 47.0911 53.0527 47.4617 52.9435L49.654 52.2972L50.946 50.412C51.1645 50.0932 51.6349 50.0932 51.8534 50.412L53.1454 52.2972L55.3377 52.9435C55.7083 53.0527 55.8537 53.5001 55.6181 53.8064L54.2243 55.6178L54.2872 57.9024C54.2978 58.2887 53.9172 58.5652 53.5531 58.4358L51.3997 57.67Z" fill="black" fill-opacity="0.01"/>
</g>
<g filter="url(#filter2_i_3672_2195)">
<path fill-rule="evenodd" clip-rule="evenodd" d="M51.3997 57.67L49.2463 58.4358C48.8822 58.5652 48.5016 58.2887 48.5122 57.9024L48.5751 55.6178L47.1814 53.8064C46.9457 53.5001 47.0911 53.0527 47.4617 52.9435L49.654 52.2972L50.946 50.412C51.1645 50.0932 51.6349 50.0932 51.8534 50.412L53.1454 52.2972L55.3377 52.9435C55.7083 53.0527 55.8537 53.5001 55.6181 53.8064L54.2243 55.6178L54.2872 57.9024C54.2978 58.2887 53.9172 58.5652 53.5531 58.4358L51.3997 57.67Z" fill="url(#paint8_linear_3672_2195)"/>
</g>
<path fill-rule="evenodd" clip-rule="evenodd" d="M51.3997 57.67L49.2463 58.4358C48.8822 58.5652 48.5016 58.2887 48.5122 57.9024L48.5751 55.6178L47.1814 53.8064C46.9457 53.5001 47.0911 53.0527 47.4617 52.9435L49.654 52.2972L50.946 50.412C51.1645 50.0932 51.6349 50.0932 51.8534 50.412L53.1454 52.2972L55.3377 52.9435C55.7083 53.0527 55.8537 53.5001 55.6181 53.8064L54.2243 55.6178L54.2872 57.9024C54.2978 58.2887 53.9172 58.5652 53.5531 58.4358L51.3997 57.67Z" stroke="white" stroke-width="1.1" stroke-linecap="round" stroke-linejoin="round"/>
<path opacity="0.4" d="M51.3998 54.6998V50.7227L49.9785 52.7411L51.3998 54.6998Z" fill="url(#paint9_linear_3672_2195)"/>
<path opacity="0.8" d="M51.3996 54.6999L49.9784 52.7412L47.6172 53.4709L51.3996 54.6999Z" fill="url(#paint10_linear_3672_2195)"/>
<path opacity="0.5" d="M51.3997 54.7002L49.0984 55.4489L49.062 57.9177L51.3997 54.7002Z" fill="url(#paint11_linear_3672_2195)"/>
<path opacity="0.4" d="M53.7376 57.9177L53.7012 55.4489L51.3999 54.7002L53.7376 57.9177Z" fill="url(#paint12_linear_3672_2195)"/>
<path d="M53.7012 55.4489L55.1824 53.4712L51.3999 54.7002L53.7012 55.4489Z" fill="#FEBA1B"/>
<path opacity="0.6" d="M55.1824 53.4709L52.8212 52.7412L51.3999 54.6999L55.1824 53.4709Z" fill="url(#paint13_linear_3672_2195)"/>
<g filter="url(#filter3_d_3672_2195)">
<path fill-rule="evenodd" clip-rule="evenodd" d="M57.4009 50.7289L57.1153 50.6162C56.9406 50.5473 56.8548 50.3498 56.9237 50.1752C56.9583 50.0875 57.0276 50.0182 57.1153 49.9836L57.4009 49.8709C57.7303 49.741 57.991 49.4803 58.1209 49.1509L58.2336 48.8653C58.3025 48.6906 58.5 48.6048 58.6747 48.6737C58.7623 48.7083 58.8317 48.7776 58.8662 48.8653L58.9789 49.1509C59.1088 49.4803 59.3695 49.741 59.6989 49.8709L59.9845 49.9836C60.1592 50.0525 60.245 50.25 60.1761 50.4247C60.1415 50.5123 60.0722 50.5817 59.9845 50.6162L59.6989 50.7289C59.3695 50.8588 59.1088 51.1195 58.9789 51.4489L58.8662 51.7345C58.7973 51.9092 58.5998 51.995 58.4252 51.9261C58.3375 51.8915 58.2682 51.8222 58.2336 51.7345L58.1209 51.4489C57.991 51.1195 57.7303 50.8588 57.4009 50.7289Z" fill="white"/>
</g>
<g filter="url(#filter4_d_3672_2195)">
<path fill-rule="evenodd" clip-rule="evenodd" d="M43.6509 60.079L43.3653 59.9663C43.1906 59.8974 43.1048 59.6999 43.1737 59.5252C43.2083 59.4376 43.2776 59.3683 43.3653 59.3337L43.6509 59.221C43.9803 59.0911 44.241 58.8304 44.3709 58.501L44.4836 58.2154C44.5525 58.0407 44.75 57.9549 44.9247 58.0238C45.0123 58.0584 45.0817 58.1277 45.1162 58.2154L45.2289 58.501C45.3588 58.8304 45.6195 59.0911 45.9489 59.221L46.2345 59.3337C46.4092 59.4026 46.495 59.6001 46.4261 59.7748C46.3915 59.8624 46.3222 59.9317 46.2345 59.9663L45.9489 60.079C45.6195 60.2089 45.3588 60.4696 45.2289 60.799L45.1162 61.0846C45.0473 61.2593 44.8498 61.3451 44.6752 61.2762C44.5875 61.2416 44.5182 61.1723 44.4836 61.0846L44.3709 60.799C44.241 60.4696 43.9803 60.2089 43.6509 60.079Z" fill="white"/>
</g>
<g filter="url(#filter5_d_3672_2195)">
<path fill-rule="evenodd" clip-rule="evenodd" d="M56.6001 59.0395L56.4573 58.9832C56.3699 58.9487 56.3271 58.85 56.3615 58.7626C56.3788 58.7188 56.4135 58.6841 56.4573 58.6668L56.6001 58.6105C56.7648 58.5456 56.8952 58.4152 56.9601 58.2505L57.0165 58.1077C57.0509 58.0203 57.1496 57.9775 57.237 58.0119C57.2808 58.0292 57.3155 58.0639 57.3328 58.1077L57.3891 58.2505C57.454 58.4152 57.5844 58.5456 57.7491 58.6105L57.8919 58.6668C57.9793 58.7013 58.0222 58.8 57.9877 58.8874C57.9704 58.9312 57.9357 58.9659 57.8919 58.9832L57.7491 59.0395C57.5844 59.1044 57.454 59.2348 57.3891 59.3995L57.3328 59.5423C57.2983 59.6297 57.1996 59.6725 57.1122 59.6381C57.0684 59.6208 57.0337 59.5861 57.0165 59.5423L56.9601 59.3995C56.8952 59.2348 56.7648 59.1044 56.6001 59.0395Z" fill="white"/>
</g>
<defs>
<filter id="filter0_d_3672_2195" x="42.6997" y="49.2998" width="4.75" height="4.75" filterUnits="userSpaceOnUse" color-interpolation-filters="sRGB">
<feFlood flood-opacity="0" result="BackgroundImageFix"/>
<feColorMatrix in="SourceAlpha" type="matrix" values="0 0 0 0 0 0 0 0 0 0 0 0 0 0 0 0 0 0 127 0" result="hardAlpha"/>
<feOffset/>
<feGaussianBlur stdDeviation="0.5"/>
<feColorMatrix type="matrix" values="0 0 0 0 1 0 0 0 0 0.94902 0 0 0 0 0.305882 0 0 0 1 0"/>
<feBlend mode="normal" in2="BackgroundImageFix" result="effect1_dropShadow_3672_2195"/>
<feBlend mode="normal" in="SourceGraphic" in2="effect1_dropShadow_3672_2195" result="shape"/>
</filter>
<filter id="filter1_d_3672_2195" x="46.0669" y="50.1729" width="10.6655" height="10.2954" filterUnits="userSpaceOnUse" color-interpolation-filters="sRGB">
<feFlood flood-opacity="0" result="BackgroundImageFix"/>
<feColorMatrix in="SourceAlpha" type="matrix" values="0 0 0 0 0 0 0 0 0 0 0 0 0 0 0 0 0 0 127 0" result="hardAlpha"/>
<feOffset dy="1"/>
<feGaussianBlur stdDeviation="0.5"/>
<feColorMatrix type="matrix" values="0 0 0 0 0.996078 0 0 0 0 0.733333 0 0 0 0 0.105882 0 0 0 1 0"/>
<feBlend mode="normal" in2="BackgroundImageFix" result="effect1_dropShadow_3672_2195"/>
<feBlend mode="normal" in="SourceGraphic" in2="effect1_dropShadow_3672_2195" result="shape"/>
</filter>
<filter id="filter2_i_3672_2195" x="46.5166" y="49.623" width="9.76611" height="10.3955" filterUnits="userSpaceOnUse" color-interpolation-filters="sRGB">
<feFlood flood-opacity="0" result="BackgroundImageFix"/>
<feBlend mode="normal" in="SourceGraphic" in2="BackgroundImageFix" result="shape"/>
<feColorMatrix in="SourceAlpha" type="matrix" values="0 0 0 0 0 0 0 0 0 0 0 0 0 0 0 0 0 0 127 0" result="hardAlpha"/>
<feOffset dy="1"/>
<feGaussianBlur stdDeviation="0.5"/>
<feComposite in2="hardAlpha" operator="arithmetic" k2="-1" k3="1"/>
<feColorMatrix type="matrix" values="0 0 0 0 0.927748 0 0 0 0 0.568655 0 0 0 0 0 0 0 0 1 0"/>
<feBlend mode="normal" in2="shape" result="effect1_innerShadow_3672_2195"/>
</filter>
<filter id="filter3_d_3672_2195" x="55.8999" y="47.6499" width="5.2998" height="5.2998" filterUnits="userSpaceOnUse" color-interpolation-filters="sRGB">
<feFlood flood-opacity="0" result="BackgroundImageFix"/>
<feColorMatrix in="SourceAlpha" type="matrix" values="0 0 0 0 0 0 0 0 0 0 0 0 0 0 0 0 0 0 127 0" result="hardAlpha"/>
<feOffset/>
<feGaussianBlur stdDeviation="0.5"/>
<feColorMatrix type="matrix" values="0 0 0 0 1 0 0 0 0 0.94902 0 0 0 0 0.305882 0 0 0 1 0"/>
<feBlend mode="normal" in2="BackgroundImageFix" result="effect1_dropShadow_3672_2195"/>
<feBlend mode="normal" in="SourceGraphic" in2="effect1_dropShadow_3672_2195" result="shape"/>
</filter>
<filter id="filter4_d_3672_2195" x="42.1499" y="57" width="5.2998" height="5.2998" filterUnits="userSpaceOnUse" color-interpolation-filters="sRGB">
<feFlood flood-opacity="0" result="BackgroundImageFix"/>
<feColorMatrix in="SourceAlpha" type="matrix" values="0 0 0 0 0 0 0 0 0 0 0 0 0 0 0 0 0 0 127 0" result="hardAlpha"/>
<feOffset/>
<feGaussianBlur stdDeviation="0.5"/>
<feColorMatrix type="matrix" values="0 0 0 0 1 0 0 0 0 0.94902 0 0 0 0 0.305882 0 0 0 1 0"/>
<feBlend mode="normal" in2="BackgroundImageFix" result="effect1_dropShadow_3672_2195"/>
<feBlend mode="normal" in="SourceGraphic" in2="effect1_dropShadow_3672_2195" result="shape"/>
</filter>
<filter id="filter5_d_3672_2195" x="55.3496" y="57" width="3.6499" height="3.6499" filterUnits="userSpaceOnUse" color-interpolation-filters="sRGB">
<feFlood flood-opacity="0" result="BackgroundImageFix"/>
<feColorMatrix in="SourceAlpha" type="matrix" values="0 0 0 0 0 0 0 0 0 0 0 0 0 0 0 0 0 0 127 0" result="hardAlpha"/>
<feOffset/>
<feGaussianBlur stdDeviation="0.5"/>
<feColorMatrix type="matrix" values="0 0 0 0 1 0 0 0 0 0.94902 0 0 0 0 0.305882 0 0 0 1 0"/>
<feBlend mode="normal" in2="BackgroundImageFix" result="effect1_dropShadow_3672_2195"/>
<feBlend mode="normal" in="SourceGraphic" in2="effect1_dropShadow_3672_2195" result="shape"/>
</filter>
<linearGradient id="paint0_linear_3672_2195" x1="62.9502" y1="17.8496" x2="62.9502" y2="39.8496" gradientUnits="userSpaceOnUse">
<stop stop-color="#F7C71A"/>
<stop offset="1" stop-color="#FBAA00"/>
</linearGradient>
<linearGradient id="paint1_linear_3672_2195" x1="62.9502" y1="17.8496" x2="62.9502" y2="39.8496" gradientUnits="userSpaceOnUse">
<stop stop-color="#FFDF6B"/>
<stop offset="1" stop-color="#F8A60A"/>
</linearGradient>
<linearGradient id="paint2_linear_3672_2195" x1="8.5" y1="17.8496" x2="8.5" y2="39.8496" gradientUnits="userSpaceOnUse">
<stop stop-color="#F7C71A"/>
<stop offset="1" stop-color="#FBAA00"/>
</linearGradient>
<linearGradient id="paint3_linear_3672_2195" x1="8.5" y1="17.8496" x2="8.5" y2="39.8496" gradientUnits="userSpaceOnUse">
<stop stop-color="#FFDF6B"/>
<stop offset="1" stop-color="#F8A60A"/>
</linearGradient>
<linearGradient id="paint4_linear_3672_2195" x1="21.1499" y1="9.46191" x2="21.1499" y2="28.85" gradientUnits="userSpaceOnUse">
<stop stop-color="#F7C71A"/>
<stop offset="1" stop-color="#FBAA00"/>
</linearGradient>
<linearGradient id="paint5_linear_3672_2195" x1="21.1499" y1="9.46191" x2="21.1499" y2="28.85" gradientUnits="userSpaceOnUse">
<stop stop-color="#FFDF6B"/>
<stop offset="1" stop-color="#F8A60A"/>
</linearGradient>
<linearGradient id="paint6_linear_3672_2195" x1="10.1499" y1="10.1499" x2="10.1499" y2="63.3297" gradientUnits="userSpaceOnUse">
<stop stop-color="#FFD541"/>
<stop offset="1" stop-color="#FFF550"/>
</linearGradient>
<linearGradient id="paint7_linear_3672_2195" x1="41.6476" y1="61.1571" x2="41.5295" y2="50.5346" gradientUnits="userSpaceOnUse">
<stop stop-color="#F8C417"/>
<stop offset="1" stop-color="#FFD937"/>
</linearGradient>
<linearGradient id="paint8_linear_3672_2195" x1="46.4497" y1="49.75" x2="46.4497" y2="59.65" gradientUnits="userSpaceOnUse">
<stop stop-color="#FCA50E"/>
<stop offset="1" stop-color="#FFC823"/>
</linearGradient>
<linearGradient id="paint9_linear_3672_2195" x1="49.9785" y1="49.7284" x2="47.6267" y2="51.4093" gradientUnits="userSpaceOnUse">
<stop stop-color="#FFEC36" stop-opacity="0.467505"/>
<stop offset="1" stop-color="#FFF7AB"/>
</linearGradient>
<linearGradient id="paint10_linear_3672_2195" x1="47.6411" y1="53.2247" x2="48.2277" y2="55.4902" gradientUnits="userSpaceOnUse">
<stop stop-color="#FFED08" stop-opacity="0.8"/>
<stop offset="1" stop-color="white"/>
</linearGradient>
<linearGradient id="paint11_linear_3672_2195" x1="50.2309" y1="58.7221" x2="52.1091" y2="55.9928" gradientUnits="userSpaceOnUse">
<stop stop-color="#FFED08" stop-opacity="0.01"/>
<stop offset="1" stop-color="#FFEF63"/>
</linearGradient>
<linearGradient id="paint12_linear_3672_2195" x1="51.3999" y1="53.8958" x2="49.5216" y2="56.6251" gradientUnits="userSpaceOnUse">
<stop stop-color="#FFEC36" stop-opacity="0.467505"/>
<stop offset="1" stop-color="#FFE94A"/>
</linearGradient>
<linearGradient id="paint13_linear_3672_2195" x1="51.3999" y1="52.2515" x2="50.8058" y2="54.5461" gradientUnits="userSpaceOnUse">
<stop stop-color="#FFEC36" stop-opacity="0.467505"/>
<stop offset="1" stop-color="#FFF7AB"/>
</linearGradient>
</defs>
</svg>
