<svg width="72" height="72" viewBox="0 0 72 72" fill="none" xmlns="http://www.w3.org/2000/svg">
<path fill-rule="evenodd" clip-rule="evenodd" d="M35.9995 61.8498C39.2215 61.8498 42.3059 61.2603 45.1506 60.1832C46.8006 61.8892 49.1135 62.9498 51.6743 62.9498C56.6862 62.9498 60.7491 58.8868 60.7491 53.8748C60.7491 51.7406 60.0124 49.7784 58.7793 48.2287C60.7379 44.5879 61.8491 40.4237 61.8491 35.9999C61.8491 21.7233 50.2758 10.1499 35.9995 10.1499C21.7232 10.1499 10.1499 21.7233 10.1499 35.9999C10.1499 50.2764 21.7232 61.8498 35.9995 61.8498ZM43.0919 56.8315C40.8666 57.5889 38.4811 57.9998 35.9995 57.9998C23.8494 57.9998 13.9999 48.1501 13.9999 35.9999C13.9999 23.8496 23.8494 13.9999 35.9995 13.9999C48.1496 13.9999 57.9992 23.8496 57.9992 35.9999C57.9992 39.5019 57.1809 42.8129 55.7251 45.7519C54.5058 45.1426 53.1301 44.7998 51.6743 44.7998C46.6623 44.7998 42.5994 48.8628 42.5994 53.8748C42.5994 54.91 42.7727 55.9047 43.0919 56.8315Z" fill="url(#paint0_linear_3672_2036)"/>
<mask id="mask0_3672_2036" style="mask-type:luminance" maskUnits="userSpaceOnUse" x="10" y="10" width="52" height="53">
<path fill-rule="evenodd" clip-rule="evenodd" d="M35.9995 61.8498C39.2215 61.8498 42.3059 61.2603 45.1506 60.1832C46.8006 61.8892 49.1135 62.9498 51.6743 62.9498C56.6862 62.9498 60.7491 58.8868 60.7491 53.8748C60.7491 51.7406 60.0124 49.7784 58.7793 48.2287C60.7379 44.5879 61.8491 40.4237 61.8491 35.9999C61.8491 21.7233 50.2758 10.1499 35.9995 10.1499C21.7232 10.1499 10.1499 21.7233 10.1499 35.9999C10.1499 50.2764 21.7232 61.8498 35.9995 61.8498ZM43.0919 56.8315C40.8666 57.5889 38.4811 57.9998 35.9995 57.9998C23.8494 57.9998 13.9999 48.1501 13.9999 35.9999C13.9999 23.8496 23.8494 13.9999 35.9995 13.9999C48.1496 13.9999 57.9992 23.8496 57.9992 35.9999C57.9992 39.5019 57.1809 42.8129 55.7251 45.7519C54.5058 45.1426 53.1301 44.7998 51.6743 44.7998C46.6623 44.7998 42.5994 48.8628 42.5994 53.8748C42.5994 54.91 42.7727 55.9047 43.0919 56.8315Z" fill="white"/>
</mask>
<g mask="url(#mask0_3672_2036)">
<g style="mix-blend-mode:multiply" opacity="0.12">
<path d="M34.0742 22.9649L43.77 13.1938" stroke="#78A2A9" stroke-width="1.65091" stroke-linecap="round"/>
</g>
<g style="mix-blend-mode:multiply" opacity="0.12">
<path d="M3.5498 38.7613L13.2456 28.9902" stroke="#78A2A9" stroke-width="1.65091" stroke-linecap="round"/>
</g>
<g style="mix-blend-mode:multiply" opacity="0.12">
<path d="M39.8491 20.4708L49.5449 10.6997" stroke="#78A2A9" stroke-width="1.65091" stroke-linecap="round"/>
</g>
<g style="mix-blend-mode:multiply" opacity="0.12">
<path d="M9.32471 36.2672L19.0205 26.4961" stroke="#78A2A9" stroke-width="1.65091" stroke-linecap="round"/>
</g>
<g style="mix-blend-mode:multiply" opacity="0.12">
<path d="M23.3496 46.2442L33.0454 36.4731" stroke="#78A2A9" stroke-width="1.65091" stroke-linecap="round"/>
</g>
<g style="mix-blend-mode:multiply" opacity="0.12">
<path d="M38.1992 32.1104L47.895 22.3394" stroke="#78A2A9" stroke-width="1.65091" stroke-linecap="round"/>
</g>
<g style="mix-blend-mode:multiply" opacity="0.12">
<path d="M45.0742 44.9649L54.77 35.1938" stroke="#78A2A9" stroke-width="1.65091" stroke-linecap="round"/>
</g>
<g style="mix-blend-mode:multiply" opacity="0.12">
<path d="M11.7998 60.7613L21.4956 50.9902" stroke="#78A2A9" stroke-width="1.65091" stroke-linecap="round"/>
</g>
<g style="mix-blend-mode:multiply" opacity="0.12">
<path d="M59.0991 50.7208L68.7949 40.9497" stroke="#78A2A9" stroke-width="1.65091" stroke-linecap="round"/>
</g>
<g style="mix-blend-mode:multiply" opacity="0.12">
<path d="M19.2246 58.2672L28.9204 48.4961" stroke="#78A2A9" stroke-width="1.65091" stroke-linecap="round"/>
</g>
<g style="mix-blend-mode:multiply" opacity="0.12">
<path d="M37.0996 66.1207L46.7954 56.3496" stroke="#78A2A9" stroke-width="1.65091" stroke-linecap="round"/>
</g>
<g style="mix-blend-mode:multiply" opacity="0.12">
<path d="M37.6494 69.4205L47.3452 59.6494" stroke="#78A2A9" stroke-width="1.65091" stroke-linecap="round"/>
</g>
<g style="mix-blend-mode:multiply" opacity="0.12">
<path d="M56.3491 49.6207L66.0449 39.8496" stroke="#78A2A9" stroke-width="1.65091" stroke-linecap="round"/>
</g>
<g style="mix-blend-mode:multiply" opacity="0.12">
<path d="M47.5493 47.9708L57.2451 38.1997" stroke="#78A2A9" stroke-width="1.65091" stroke-linecap="round"/>
</g>
</g>
<g style="mix-blend-mode:lighten" opacity="0.12">
<path d="M15.126 44.547C18.4936 52.7629 26.5707 58.5498 35.9994 58.5498C37.3379 58.5498 38.649 58.4332 39.9234 58.2096" stroke="white" stroke-width="1.1" stroke-linecap="round"/>
</g>
<g style="mix-blend-mode:lighten" opacity="0.12">
<path d="M56.7456 44.8516C57.6542 42.7248 58.2453 40.43 58.4594 38.0268" stroke="white" stroke-width="1.1" stroke-linecap="round"/>
</g>
<path opacity="0.4" d="M24.4277 55.3584C27.8106 57.3849 31.7689 58.5498 35.9992 58.5498" stroke="white" stroke-width="1.10061" stroke-linecap="round" stroke-linejoin="round"/>
<path opacity="0.2" d="M56.5317 26.6639C52.9817 18.869 45.1234 13.4502 35.9995 13.4502C26.8756 13.4502 19.0173 18.869 15.4673 26.6639" stroke="#64788F" stroke-width="1.10061" stroke-linecap="round" stroke-linejoin="round"/>
<path opacity="0.2" d="M24.4277 16.6416C27.8106 14.6151 31.7689 13.4502 35.9992 13.4502C40.2295 13.4502 44.1878 14.6151 47.5707 16.6416" stroke="#64788F" stroke-width="1.10061" stroke-linecap="round" stroke-linejoin="round"/>
<path opacity="0.4" d="M61.2989 36.0001C61.2989 22.0274 49.9719 10.7002 35.9993 10.7002C22.0267 10.7002 10.6997 22.0274 10.6997 36.0001" stroke="white" stroke-width="1.10061" stroke-linecap="round" stroke-linejoin="round"/>
<path opacity="0.4" d="M49.2882 62.042C50.9897 62.551 52.704 62.6296 54.5114 62.0073C57.1979 61.0822 59.0012 58.8719 59.842 56.372" stroke="#64788F" stroke-width="1.10061" stroke-linecap="round" stroke-linejoin="round"/>
<path opacity="0.4" d="M15.9624 51.2754C20.6065 57.372 27.8969 61.3 36.0944 61.3" stroke="#64788F" stroke-width="1.10061" stroke-linecap="round" stroke-linejoin="round"/>
<path opacity="0.4" d="M51.6743 45.3501C46.9661 45.3501 43.1494 49.1669 43.1494 53.8751" stroke="white" stroke-width="1.10061" stroke-linecap="round" stroke-linejoin="round"/>
<g filter="url(#filter0_d_3672_2036)">
<path fill-rule="evenodd" clip-rule="evenodd" d="M51.3122 49.7271C51.4957 49.4911 51.8525 49.4911 52.0361 49.7271L55.0434 53.5936C55.1722 53.7592 55.1722 53.9911 55.0434 54.1567L52.0361 58.0232C51.8525 58.2593 51.4957 58.2593 51.3122 58.0232L48.3049 54.1567C48.1761 53.9911 48.1761 53.7592 48.3049 53.5936L51.3122 49.7271Z" fill="black" fill-opacity="0.01"/>
</g>
<g filter="url(#filter1_i_3672_2036)">
<path fill-rule="evenodd" clip-rule="evenodd" d="M51.3122 49.7271C51.4957 49.4911 51.8525 49.4911 52.0361 49.7271L55.0434 53.5936C55.1722 53.7592 55.1722 53.9911 55.0434 54.1567L52.0361 58.0232C51.8525 58.2593 51.4957 58.2593 51.3122 58.0232L48.3049 54.1567C48.1761 53.9911 48.1761 53.7592 48.3049 53.5936L51.3122 49.7271Z" fill="url(#paint1_linear_3672_2036)"/>
</g>
<path fill-rule="evenodd" clip-rule="evenodd" d="M51.3122 49.7271C51.4957 49.4911 51.8525 49.4911 52.0361 49.7271L55.0434 53.5936C55.1722 53.7592 55.1722 53.9911 55.0434 54.1567L52.0361 58.0232C51.8525 58.2593 51.4957 58.2593 51.3122 58.0232L48.3049 54.1567C48.1761 53.9911 48.1761 53.7592 48.3049 53.5936L51.3122 49.7271Z" stroke="#E1EAF6" stroke-width="1.10061" stroke-linecap="round" stroke-linejoin="round"/>
<defs>
<filter id="filter0_d_3672_2036" x="47.2085" y="49.5503" width="8.93164" height="10.6499" filterUnits="userSpaceOnUse" color-interpolation-filters="sRGB">
<feFlood flood-opacity="0" result="BackgroundImageFix"/>
<feColorMatrix in="SourceAlpha" type="matrix" values="0 0 0 0 0 0 0 0 0 0 0 0 0 0 0 0 0 0 127 0" result="hardAlpha"/>
<feOffset dy="1"/>
<feGaussianBlur stdDeviation="0.5"/>
<feColorMatrix type="matrix" values="0 0 0 0 0.0196078 0 0 0 0 0.443137 0 0 0 0 0.643137 0 0 0 0.2 0"/>
<feBlend mode="normal" in2="BackgroundImageFix" result="effect1_dropShadow_3672_2036"/>
<feBlend mode="normal" in="SourceGraphic" in2="effect1_dropShadow_3672_2036" result="shape"/>
</filter>
<filter id="filter1_i_3672_2036" x="47.6582" y="49" width="8.03223" height="10.7505" filterUnits="userSpaceOnUse" color-interpolation-filters="sRGB">
<feFlood flood-opacity="0" result="BackgroundImageFix"/>
<feBlend mode="normal" in="SourceGraphic" in2="BackgroundImageFix" result="shape"/>
<feColorMatrix in="SourceAlpha" type="matrix" values="0 0 0 0 0 0 0 0 0 0 0 0 0 0 0 0 0 0 127 0" result="hardAlpha"/>
<feOffset dy="1"/>
<feGaussianBlur stdDeviation="0.5"/>
<feComposite in2="hardAlpha" operator="arithmetic" k2="-1" k3="1"/>
<feColorMatrix type="matrix" values="0 0 0 0 0.478431 0 0 0 0 0.537255 0 0 0 0 0.623529 0 0 0 1 0"/>
<feBlend mode="normal" in2="shape" result="effect1_innerShadow_3672_2036"/>
</filter>
<linearGradient id="paint0_linear_3672_2036" x1="10.1499" y1="10.1499" x2="10.1499" y2="62.9498" gradientUnits="userSpaceOnUse">
<stop stop-color="#C6D1E4"/>
<stop offset="1" stop-color="#A4B1C4"/>
</linearGradient>
<linearGradient id="paint1_linear_3672_2036" x1="48.0859" y1="49.2617" x2="48.0859" y2="58.4886" gradientUnits="userSpaceOnUse">
<stop stop-color="#A3B0C5"/>
<stop offset="1" stop-color="#7A8AA1"/>
</linearGradient>
</defs>
</svg>
