<svg width="72" height="72" viewBox="0 0 72 72" fill="none" xmlns="http://www.w3.org/2000/svg">
<path fill-rule="evenodd" clip-rule="evenodd" d="M35.9999 61.8499C38.4105 61.8499 40.744 61.5199 42.9577 60.9027C44.5517 62.5068 46.7598 63.4999 49.1999 63.4999C54.06 63.4999 57.9999 59.56 57.9999 54.6999C57.9999 53.3346 57.689 52.0419 57.1341 50.8888C60.1049 46.6796 61.8499 41.5436 61.8499 35.9999C61.8499 21.7233 50.2765 10.1499 35.9999 10.1499C21.7233 10.1499 10.1499 21.7233 10.1499 35.9999C10.1499 50.2765 21.7233 61.8499 35.9999 61.8499ZM40.8431 57.4651C39.2848 57.8152 37.6639 57.9999 35.9999 57.9999C23.8496 57.9999 13.9999 48.1502 13.9999 35.9999C13.9999 23.8496 23.8496 13.9999 35.9999 13.9999C48.1502 13.9999 57.9999 23.8496 57.9999 35.9999C57.9999 40.3216 56.7538 44.3522 54.6013 47.7521C53.1103 46.5913 51.2358 45.8999 49.1999 45.8999C44.3398 45.8999 40.3999 49.8398 40.3999 54.6999C40.3999 55.6659 40.5555 56.5955 40.8431 57.4651Z" fill="url(#paint0_linear_3672_1981)"/>
<mask id="mask0_3672_1981" style="mask-type:luminance" maskUnits="userSpaceOnUse" x="10" y="10" width="52" height="54">
<path fill-rule="evenodd" clip-rule="evenodd" d="M35.9999 61.8499C38.4105 61.8499 40.744 61.5199 42.9577 60.9027C44.5517 62.5068 46.7598 63.4999 49.1999 63.4999C54.06 63.4999 57.9999 59.56 57.9999 54.6999C57.9999 53.3346 57.689 52.0419 57.1341 50.8888C60.1049 46.6796 61.8499 41.5436 61.8499 35.9999C61.8499 21.7233 50.2765 10.1499 35.9999 10.1499C21.7233 10.1499 10.1499 21.7233 10.1499 35.9999C10.1499 50.2765 21.7233 61.8499 35.9999 61.8499ZM40.8431 57.4651C39.2848 57.8152 37.6639 57.9999 35.9999 57.9999C23.8496 57.9999 13.9999 48.1502 13.9999 35.9999C13.9999 23.8496 23.8496 13.9999 35.9999 13.9999C48.1502 13.9999 57.9999 23.8496 57.9999 35.9999C57.9999 40.3216 56.7538 44.3522 54.6013 47.7521C53.1103 46.5913 51.2358 45.8999 49.1999 45.8999C44.3398 45.8999 40.3999 49.8398 40.3999 54.6999C40.3999 55.6659 40.5555 56.5955 40.8431 57.4651Z" fill="white"/>
</mask>
<g mask="url(#mask0_3672_1981)">
<g style="mix-blend-mode:multiply" opacity="0.2">
<path d="M43.3543 57.0065L33.6316 66.7293C32.5584 67.8024 30.8184 67.8024 29.7453 66.7293C28.6721 65.6561 28.6721 63.9161 29.7453 62.843L39.468 53.1202C40.5412 52.0471 42.2811 52.0471 43.3543 53.1202C44.4275 54.1934 44.4275 55.9334 43.3543 57.0065Z" stroke="#EBB570" stroke-width="1.10394"/>
</g>
<g style="mix-blend-mode:multiply" opacity="0.2">
<path d="M41.8415 55.9534L31.2034 66.5915C30.8126 66.9823 30.1789 66.9823 29.7881 66.5915C29.3972 66.2006 29.3972 65.567 29.7881 65.1761L40.4261 54.5381C40.817 54.1472 41.4506 54.1472 41.8415 54.5381C42.2323 54.9289 42.2323 55.5626 41.8415 55.9534Z" stroke="#EBB570" stroke-width="1.10394"/>
</g>
<g style="mix-blend-mode:multiply" opacity="0.2">
<path d="M21.3543 39.4069L11.6316 49.1296C10.5584 50.2028 8.81844 50.2028 7.74526 49.1296C6.67209 48.0565 6.67209 46.3165 7.74527 45.2433L17.468 35.5206C18.5412 34.4475 20.2811 34.4475 21.3543 35.5206C22.4275 36.5938 22.4275 38.3338 21.3543 39.4069Z" stroke="#EBB570" stroke-width="1.10394"/>
</g>
<g style="mix-blend-mode:multiply" opacity="0.2">
<path d="M19.8415 38.3538L9.20343 48.9919C8.81259 49.3827 8.17892 49.3827 7.78808 48.9919C7.39724 48.601 7.39724 47.9673 7.78808 47.5765L18.4261 36.9385C18.817 36.5476 19.4506 36.5476 19.8415 36.9385C20.2323 37.3293 20.2323 37.963 19.8415 38.3538Z" stroke="#EBB570" stroke-width="1.10394"/>
</g>
<g style="mix-blend-mode:multiply" opacity="0.2">
<path d="M44.2426 9.21311L48.501 13.4662C49.5804 14.5442 49.5804 16.2936 48.501 17.3716L25.6074 40.2367C24.5299 41.3129 22.7843 41.3129 21.7068 40.2367L17.4485 35.9837C16.3691 34.9056 16.3691 33.1563 17.4485 32.0782L40.342 9.2131C41.4196 8.13693 43.1651 8.13693 44.2426 9.21311Z" stroke="#EBB570" stroke-width="1.10394"/>
</g>
<g style="mix-blend-mode:multiply" opacity="0.2">
<path d="M43.4725 17.4817L23.0829 37.8459C22.1372 38.7905 20.6051 38.7905 19.6594 37.8459C18.712 36.8997 18.712 35.3643 19.6594 34.4181L40.0489 14.0539C40.9947 13.1093 42.5268 13.1093 43.4725 14.0539C44.4199 15.0001 44.4199 16.5355 43.4725 17.4817Z" stroke="#EBB570" stroke-width="1.10394"/>
</g>
<g style="mix-blend-mode:multiply" opacity="0.2">
<mask id="path-9-inside-1_3672_1981" fill="white">
<path fill-rule="evenodd" clip-rule="evenodd" d="M29.7626 55.7598C28.4762 54.4714 28.4762 52.3847 29.7626 51.0964L55.4773 25.343C56.7651 24.0533 58.8545 24.0518 60.1442 25.3395L65.3367 30.5398C66.6231 31.8281 66.711 32.7864 65.4246 34.0748L54.6996 44.5248"/>
</mask>
<path d="M29.7626 51.0964L30.5438 51.8764L29.7626 51.0964ZM55.4773 25.343L54.6961 24.563L55.4773 25.343ZM60.1442 25.3395L60.9254 24.5595L60.9242 24.5583L60.1442 25.3395ZM65.3367 30.5398L66.1178 29.7598L66.1178 29.7598L65.3367 30.5398ZM65.4246 34.0748L66.195 34.8655L66.2005 34.8602L66.2058 34.8548L65.4246 34.0748ZM30.5438 54.9798C29.6877 54.1224 29.6877 52.7337 30.5438 51.8764L28.9814 50.3164C27.2647 52.0357 27.2647 54.8205 28.9814 56.5398L30.5438 54.9798ZM30.5438 51.8764L56.2585 26.123L54.6961 24.563L28.9814 50.3164L30.5438 51.8764ZM56.2585 26.123C57.1155 25.2648 58.5059 25.2637 59.3642 26.1207L60.9242 24.5583C59.2031 22.8398 56.4147 22.8419 54.6961 24.563L56.2585 26.123ZM59.363 26.1195L64.5555 31.3198L66.1178 29.7598L60.9254 24.5595L59.363 26.1195ZM64.5555 31.3198C65.1483 31.9136 65.2372 32.2197 65.2423 32.3505C65.2463 32.451 65.2095 32.7278 64.6434 33.2948L66.2058 34.8548C66.9262 34.1334 67.4886 33.2869 67.4485 32.2641C67.4097 31.2715 66.8114 30.4543 66.1178 29.7598L64.5555 31.3198ZM64.6542 33.2841L53.9292 43.7341L55.47 45.3155L66.195 34.8655L64.6542 33.2841Z" fill="#EBB570" mask="url(#path-9-inside-1_3672_1981)"/>
</g>
<g style="mix-blend-mode:multiply" opacity="0.2">
<mask id="path-11-inside-2_3672_1981" fill="white">
<path fill-rule="evenodd" clip-rule="evenodd" d="M32.451 53.4275L54.9091 30.9356C56.1873 29.6555 58.2614 29.6539 59.5415 30.9321C59.5427 30.9333 59.5438 30.9345 59.545 30.9356V30.9356V30.9356C60.8257 32.2183 60.8257 34.2958 59.545 35.5785L52.4583 42.6759"/>
</mask>
<path d="M54.9091 30.9356L55.6903 31.7156L54.9091 30.9356ZM59.5415 30.9321L58.7615 31.7133L59.5415 30.9321ZM59.545 35.5785L58.7638 34.7985L59.545 35.5785ZM33.2322 54.2075L55.6903 31.7156L54.1279 30.1556L31.6698 52.6475L33.2322 54.2075ZM55.6903 31.7156C56.5377 30.8669 57.9128 30.8659 58.7615 31.7133L60.3215 30.151C58.6099 28.4419 55.8369 28.444 54.1279 30.1556L55.6903 31.7156ZM58.7615 31.7133C58.7623 31.7141 58.763 31.7149 58.7638 31.7156L60.3262 30.1556C60.3246 30.1541 60.3231 30.1525 60.3215 30.151L58.7615 31.7133ZM58.7638 31.7156C59.6142 32.5673 59.6142 33.9468 58.7638 34.7985L60.3262 36.3585C62.0373 34.6449 62.0373 31.8692 60.3262 30.1556L58.7638 31.7156ZM58.7638 34.7985L51.6771 41.8958L53.2395 43.4559L60.3262 36.3585L58.7638 34.7985Z" fill="#EBB570" mask="url(#path-11-inside-2_3672_1981)"/>
</g>
<g style="mix-blend-mode:multiply" opacity="0.2">
<mask id="path-13-inside-3_3672_1981" fill="white">
<path fill-rule="evenodd" clip-rule="evenodd" d="M-0.548975 42.4275L21.9091 19.9356C23.1873 18.6555 25.2614 18.6539 26.5415 19.9321C26.5427 19.9333 26.5438 19.9345 26.545 19.9356V19.9356V19.9356C27.8257 21.2183 27.8257 23.2958 26.545 24.5785L19.4583 31.6759"/>
</mask>
<path d="M21.9091 19.9356L22.6903 20.7156L21.9091 19.9356ZM26.5415 19.9321L25.7615 20.7133L26.5415 19.9321ZM26.545 24.5785L25.7638 23.7985L26.545 24.5785ZM0.232218 43.2075L22.6903 20.7156L21.1279 19.1556L-1.33017 41.6475L0.232218 43.2075ZM22.6903 20.7156C23.5377 19.8669 24.9128 19.8659 25.7615 20.7133L27.3215 19.151C25.6099 17.4419 22.8369 17.444 21.1279 19.1556L22.6903 20.7156ZM25.7615 20.7133C25.7623 20.7141 25.763 20.7149 25.7638 20.7156L27.3262 19.1556C27.3246 19.1541 27.3231 19.1525 27.3215 19.151L25.7615 20.7133ZM25.7638 20.7156C26.6142 21.5673 26.6142 22.9468 25.7638 23.7985L27.3262 25.3585C29.0373 23.6449 29.0373 20.8692 27.3262 19.1556L25.7638 20.7156ZM25.7638 23.7985L18.6771 30.8958L20.2395 32.4559L27.3262 25.3585L25.7638 23.7985Z" fill="#EBB570" mask="url(#path-13-inside-3_3672_1981)"/>
</g>
</g>
<path opacity="0.2" d="M14.4878 29.2178C17.3666 20.078 25.9093 13.4502 36 13.4502C46.0907 13.4502 54.6333 20.078 57.5122 29.2178" stroke="#D99139" stroke-width="1.10394" stroke-linecap="round" stroke-linejoin="round"/>
<path opacity="0.2" d="M24.4287 16.6416C27.8117 14.6151 31.77 13.4502 36.0004 13.4502C40.2307 13.4502 44.189 14.6151 47.572 16.6416" stroke="#D99139" stroke-width="1.10394" stroke-linecap="round" stroke-linejoin="round"/>
<path d="M46.5045 62.4953C48.1969 63.0339 49.9096 63.1424 51.7276 62.5517C54.4299 61.6737 56.2715 59.4952 57.1559 57.0103" stroke="#D99139" stroke-width="1.10394" stroke-linecap="round" stroke-linejoin="round"/>
<path d="M15.9629 51.2754C20.6071 57.372 27.8976 61.3 36.0952 61.3C37.5064 61.3 38.8907 61.1836 40.2393 60.9598" stroke="#D99139" stroke-width="1.10394" stroke-linecap="round" stroke-linejoin="round"/>
<path opacity="0.4" d="M61.3002 36.0002C61.3002 22.0274 49.973 10.7002 36.0002 10.7002C22.0274 10.7002 10.7002 22.0274 10.7002 36.0002" stroke="white" stroke-width="1.10394" stroke-linecap="round" stroke-linejoin="round"/>
<path opacity="0.6" d="M54.1502 48.1004C52.7071 47.0651 51.1117 46.4326 49.2002 46.4326C46.3588 46.4326 43.9341 47.9354 42.3252 50.0254" stroke="#F8DDB4" stroke-width="1.10394" stroke-linecap="round"/>
<path opacity="0.8" d="M49.2003 46.4326C47.5494 46.4326 45.9003 47.0004 44.8003 47.8254" stroke="#FFECD0" stroke-width="1.10394" stroke-linecap="round"/>
<path opacity="0.2" d="M14.3457 42.3129C17.0759 51.6945 25.7374 58.5503 36.0002 58.5503C37.3386 58.5503 38.6499 58.4337 39.9242 58.2101" stroke="#D99139" stroke-width="1.10394" stroke-linecap="round" stroke-linejoin="round"/>
<path opacity="0.2" d="M55.6289 47.1084C56.5055 45.5628 57.2048 43.9034 57.6991 42.158" stroke="#D99139" stroke-width="1.10394" stroke-linecap="round" stroke-linejoin="round"/>
<path opacity="0.3" d="M24.4287 55.3589C27.8117 57.3854 31.77 58.5503 36.0004 58.5503" stroke="white" stroke-width="1.10394" stroke-linecap="round" stroke-linejoin="round"/>
<g opacity="0.4" filter="url(#filter0_d_3672_1981)">
<path fill-rule="evenodd" clip-rule="evenodd" d="M51.6346 49.75C51.6346 49.75 51.0879 49.75 50.2677 50.2646C49.7454 50.5924 49.4448 51.0245 49.2954 51.2951C49.2552 51.2942 49.2148 51.2937 49.1743 51.2937C46.7586 51.2937 44.8003 52.9065 44.8003 54.8958C44.8003 56.8852 46.7586 58.4979 49.1743 58.4979C51.5899 58.4979 53.5482 56.8852 53.5482 54.8958C53.5482 53.6783 52.8147 52.6019 51.6918 51.9499C51.6816 51.9085 51.6629 51.8615 51.6346 51.8083C51.0879 50.7792 51.6346 49.75 51.6346 49.75Z" fill="black" fill-opacity="0.01"/>
</g>
<g filter="url(#filter1_i_3672_1981)">
<path fill-rule="evenodd" clip-rule="evenodd" d="M51.6346 49.75C51.6346 49.75 51.0879 49.75 50.2677 50.2646C49.7454 50.5924 49.4448 51.0245 49.2954 51.2951C49.2552 51.2942 49.2148 51.2937 49.1743 51.2937C46.7586 51.2937 44.8003 52.9065 44.8003 54.8958C44.8003 56.8852 46.7586 58.4979 49.1743 58.4979C51.5899 58.4979 53.5482 56.8852 53.5482 54.8958C53.5482 53.7344 52.8807 52.7013 51.8445 52.0426C51.7533 51.9608 51.6705 51.8759 51.6346 51.8083C51.0879 50.7792 51.6346 49.75 51.6346 49.75Z" fill="url(#paint1_linear_3672_1981)"/>
</g>
<path d="M50.2677 50.2646L49.975 49.798L49.975 49.798L50.2677 50.2646ZM51.6346 49.75L52.121 50.0084C52.2117 49.8377 52.2063 49.6319 52.1067 49.4662C52.0071 49.3006 51.8279 49.1992 51.6346 49.1992V49.75ZM49.2954 51.2951L49.2831 51.8457C49.488 51.8503 49.6785 51.7407 49.7776 51.5613L49.2954 51.2951ZM51.8445 52.0426L51.4764 52.4524C51.4991 52.4727 51.5233 52.4911 51.549 52.5074L51.8445 52.0426ZM51.6346 51.8083L52.121 51.5499L52.121 51.5499L51.6346 51.8083ZM50.5605 50.7311C50.9231 50.5036 51.2142 50.3966 51.4017 50.3462C51.4959 50.3209 51.5649 50.3095 51.6049 50.3045C51.625 50.302 51.6378 50.3011 51.6429 50.3008C51.6455 50.3006 51.6461 50.3006 51.6447 50.3007C51.644 50.3007 51.6429 50.3007 51.6412 50.3007C51.6403 50.3007 51.6394 50.3008 51.6383 50.3008C51.6377 50.3008 51.6372 50.3008 51.6365 50.3008C51.6362 50.3008 51.6359 50.3008 51.6356 50.3008C51.6354 50.3008 51.6352 50.3008 51.6351 50.3008C51.6349 50.3008 51.6346 50.3008 51.6346 49.75C51.6346 49.1992 51.6344 49.1992 51.6341 49.1992C51.634 49.1992 51.6337 49.1992 51.6336 49.1992C51.6332 49.1992 51.6329 49.1992 51.6325 49.1992C51.6317 49.1992 51.631 49.1992 51.6301 49.1992C51.6285 49.1993 51.6268 49.1993 51.6249 49.1993C51.6211 49.1994 51.6167 49.1995 51.6118 49.1996C51.6021 49.1999 51.5901 49.2004 51.5761 49.2012C51.5481 49.2029 51.5118 49.206 51.4678 49.2116C51.3797 49.2226 51.2608 49.2434 51.1157 49.2824C50.8249 49.3607 50.4325 49.511 49.975 49.798L50.5605 50.7311ZM49.7776 51.5613C49.8982 51.3429 50.1416 50.9939 50.5605 50.7311L49.975 49.798C49.3491 50.1908 48.9914 50.7062 48.8132 51.0289L49.7776 51.5613ZM49.1743 51.8445C49.2107 51.8445 49.2469 51.8449 49.2831 51.8457L49.3078 50.7445C49.2634 50.7435 49.2189 50.743 49.1743 50.743V51.8445ZM45.3511 54.8958C45.3511 53.3058 46.9579 51.8445 49.1743 51.8445V50.743C46.5593 50.743 44.2495 52.5071 44.2495 54.8958H45.3511ZM49.1743 57.9471C46.9579 57.9471 45.3511 56.4858 45.3511 54.8958H44.2495C44.2495 57.2846 46.5593 59.0487 49.1743 59.0487V57.9471ZM52.9974 54.8958C52.9974 56.4858 51.3906 57.9471 49.1743 57.9471V59.0487C51.7892 59.0487 54.099 57.2846 54.099 54.8958H52.9974ZM51.549 52.5074C52.4598 53.0864 52.9974 53.9594 52.9974 54.8958H54.099C54.099 53.5094 53.3017 52.3163 52.1399 51.5778L51.549 52.5074ZM51.1482 52.0667C51.2358 52.2315 51.3904 52.3751 51.4764 52.4524L52.2125 51.6328C52.1743 51.5986 52.145 51.57 52.1248 51.5479C52.1149 51.5372 52.1099 51.5308 52.1083 51.5288C52.1061 51.5259 52.1122 51.5333 52.121 51.5499L51.1482 52.0667ZM51.6346 49.75C51.1482 49.4916 51.1481 49.4918 51.148 49.492C51.148 49.4921 51.1478 49.4923 51.1478 49.4924C51.1476 49.4927 51.1475 49.493 51.1473 49.4934C51.1469 49.494 51.1466 49.4948 51.1461 49.4955C51.1453 49.4971 51.1444 49.499 51.1433 49.5011C51.1411 49.5052 51.1385 49.5105 51.1354 49.5167C51.1292 49.5291 51.1212 49.5456 51.1119 49.5659C51.0933 49.6064 51.069 49.6623 51.0428 49.7315C50.9905 49.8693 50.9286 50.0637 50.8872 50.2972C50.8048 50.7626 50.8001 51.4114 51.1482 52.0667L52.121 51.5499C51.9224 51.1761 51.9176 50.7957 51.9719 50.4893C51.9989 50.3368 52.0395 50.2097 52.0727 50.1223C52.0891 50.0789 52.1033 50.0464 52.1125 50.0266C52.117 50.0167 52.1203 50.0101 52.1218 50.0069C52.1226 50.0054 52.123 50.0047 52.1228 50.0049C52.1228 50.005 52.1226 50.0054 52.1223 50.006C52.1221 50.0062 52.122 50.0066 52.1217 50.007C52.1216 50.0072 52.1215 50.0074 52.1214 50.0077C52.1213 50.0078 52.1212 50.008 52.1212 50.008C52.1211 50.0082 52.121 50.0084 51.6346 49.75Z" fill="#FFECD0"/>
<ellipse cx="47.534" cy="54.3813" rx="0.546746" ry="0.514584" fill="#F7DCB3"/>
<ellipse cx="50.8143" cy="54.3813" rx="0.546746" ry="0.514584" fill="#F7DCB3"/>
<defs>
<filter id="filter0_d_3672_1981" x="42.8003" y="48.75" width="12.748" height="12.748" filterUnits="userSpaceOnUse" color-interpolation-filters="sRGB">
<feFlood flood-opacity="0" result="BackgroundImageFix"/>
<feColorMatrix in="SourceAlpha" type="matrix" values="0 0 0 0 0 0 0 0 0 0 0 0 0 0 0 0 0 0 127 0" result="hardAlpha"/>
<feOffset dy="1"/>
<feGaussianBlur stdDeviation="1"/>
<feColorMatrix type="matrix" values="0 0 0 0 0.886275 0 0 0 0 0.65098 0 0 0 0 0.372549 0 0 0 1 0"/>
<feBlend mode="normal" in2="BackgroundImageFix" result="effect1_dropShadow_3672_1981"/>
<feBlend mode="normal" in="SourceGraphic" in2="effect1_dropShadow_3672_1981" result="shape"/>
</filter>
<filter id="filter1_i_3672_1981" x="44.2495" y="49.1992" width="9.84961" height="10.8496" filterUnits="userSpaceOnUse" color-interpolation-filters="sRGB">
<feFlood flood-opacity="0" result="BackgroundImageFix"/>
<feBlend mode="normal" in="SourceGraphic" in2="BackgroundImageFix" result="shape"/>
<feColorMatrix in="SourceAlpha" type="matrix" values="0 0 0 0 0 0 0 0 0 0 0 0 0 0 0 0 0 0 127 0" result="hardAlpha"/>
<feOffset dy="1"/>
<feGaussianBlur stdDeviation="0.5"/>
<feComposite in2="hardAlpha" operator="arithmetic" k2="-1" k3="1"/>
<feColorMatrix type="matrix" values="0 0 0 0 0.801791 0 0 0 0 0.623822 0 0 0 0 0.41026 0 0 0 1 0"/>
<feBlend mode="normal" in2="shape" result="effect1_innerShadow_3672_1981"/>
</filter>
<linearGradient id="paint0_linear_3672_1981" x1="10.1499" y1="10.1499" x2="10.1499" y2="63.4999" gradientUnits="userSpaceOnUse">
<stop stop-color="#FDDA9D"/>
<stop offset="1" stop-color="#EFB35E"/>
</linearGradient>
<linearGradient id="paint1_linear_3672_1981" x1="44.8003" y1="49.75" x2="44.8003" y2="58.4979" gradientUnits="userSpaceOnUse">
<stop stop-color="#F6C280"/>
<stop offset="1" stop-color="#E2A65E"/>
</linearGradient>
</defs>
</svg>
