<svg width="30" height="31" viewBox="0 0 30 31" fill="none" xmlns="http://www.w3.org/2000/svg">
<g id="Arrows-chevron/Arrow-Left">
<path id="Icon" d="M13.6873 25.1627C13.8664 25.3317 14.1035 25.4256 14.3498 25.4252C14.5951 25.4273 14.8304 25.3277 14.9998 25.1502C15.1784 24.976 15.2792 24.7371 15.2792 24.4877C15.2792 24.2382 15.1784 23.9993 14.9998 23.8252L7.87468 16.7001L24.4 16.7001C24.9178 16.7001 25.3375 16.2803 25.3375 15.7626C25.3375 15.2448 24.9178 14.8251 24.4 14.8251L7.87195 14.8251L15.0123 7.66265C15.1909 7.48854 15.2917 7.24964 15.2917 7.00015C15.2917 6.75067 15.1909 6.51176 15.0123 6.33765C14.6462 5.97208 14.0533 5.97208 13.6873 6.33765L4.93726 15.0877C4.57169 15.4537 4.57169 16.0466 4.93726 16.4127L13.6873 25.1627Z" fill="#B3B8C2"/>
</g>
</svg>
