<svg width="30" height="31" viewBox="0 0 30 31" fill="none" xmlns="http://www.w3.org/2000/svg">
<g id="Interface essential/Chat-1">
<path id="Icon" fill-rule="evenodd" clip-rule="evenodd" d="M8.875 3.12633L21.4375 3.12633C24.8368 3.09761 27.6356 5.79099 27.7375 9.18883L27.7375 18.2888C27.6356 21.6916 24.8291 24.3869 21.425 24.3513H19.475C18.9892 24.3528 18.53 24.5733 18.225 24.9513L16.375 27.3013C16.0663 27.673 15.6082 27.888 15.125 27.888C14.6418 27.888 14.1837 27.673 13.875 27.3013L12.0125 24.9513C11.7075 24.5733 11.2483 24.3528 10.7625 24.3513H8.875C5.44674 24.4214 2.60215 21.7163 2.5 18.2888L2.5 9.18883C2.60215 5.76137 5.44674 3.05623 8.875 3.12633ZM10.4375 16.2263C10.9553 16.2263 11.375 15.8066 11.375 15.2888L11.375 12.2888C11.375 11.7711 10.9553 11.3513 10.4375 11.3513C9.91973 11.3513 9.5 11.7711 9.5 12.2888L9.5 15.2888C9.5 15.8066 9.91973 16.2263 10.4375 16.2263ZM16.0625 15.2888C16.0625 15.8066 15.6428 16.2263 15.125 16.2263C14.6072 16.2263 14.1875 15.8066 14.1875 15.2888L14.1875 12.2888C14.1875 11.7711 14.6072 11.3513 15.125 11.3513C15.6428 11.3513 16.0625 11.7711 16.0625 12.2888L16.0625 15.2888ZM19.8125 16.2263C20.3303 16.2263 20.75 15.8066 20.75 15.2888V12.2888C20.75 11.7711 20.3303 11.3513 19.8125 11.3513C19.2947 11.3513 18.875 11.7711 18.875 12.2888V15.2888C18.875 15.8066 19.2947 16.2263 19.8125 16.2263Z" fill="#B3B8C2"/>
</g>
</svg>
