<svg width="30" height="31" viewBox="0 0 30 31" fill="none" xmlns="http://www.w3.org/2000/svg">
<g id="Interface essential/Moon">
<g id="Icon">
<path fill-rule="evenodd" clip-rule="evenodd" d="M3.2251 15.2376C3.2251 8.67928 8.5417 3.36269 15.1001 3.36269C15.9726 3.35831 16.8425 3.45716 17.6918 3.65721C14.3306 4.61958 12.1307 7.83859 12.4553 11.3198C12.7798 14.801 15.5367 17.5579 19.0179 17.8824C22.4991 18.2069 25.7181 16.0071 26.6805 12.6459C26.8805 13.4951 26.9794 14.3651 26.975 15.2376C26.975 21.796 21.6584 27.1125 15.1001 27.1125C8.5417 27.1125 3.2251 21.796 3.2251 15.2376ZM13.2893 17.0474C10.2087 13.9696 9.76146 9.13249 12.2256 5.54212C7.58766 6.91958 4.5762 11.3904 5.04258 16.206C5.50897 21.0216 9.32239 24.8314 14.1384 25.2933C18.9545 25.7551 23.4225 22.7395 24.7956 18.1003C21.2075 20.5678 16.3699 20.1251 13.2893 17.0474Z" fill="#B3B8C2"/>
<path d="M13.2893 17.0474C10.2087 13.9696 9.76146 9.13249 12.2256 5.54212C7.58766 6.91958 4.5762 11.3904 5.04258 16.206C5.50897 21.0216 9.32239 24.8314 14.1384 25.2933C18.9545 25.7551 23.4225 22.7395 24.7956 18.1003C21.2075 20.5678 16.3699 20.1251 13.2893 17.0474Z" fill="#B3B8C2"/>
</g>
</g>
</svg>
