<svg width="30" height="31" viewBox="0 0 30 31" fill="none" xmlns="http://www.w3.org/2000/svg">
<g id="Layout/grid-8">
<g id="Icon">
<path d="M3.75 7.19995C3.75 5.64665 5.0092 4.38745 6.5625 4.38745L10.425 4.38745C11.9783 4.38745 13.2375 5.64665 13.2375 7.19995V11.0625C13.2375 12.6158 11.9783 13.875 10.425 13.875H6.5625C5.0092 13.875 3.75 12.6158 3.75 11.0625L3.75 7.19995Z" fill="#B3B8C2"/>
<path d="M16.7625 7.19995C16.7625 5.64665 18.0217 4.38745 19.575 4.38745L23.4375 4.38745C24.9908 4.38745 26.25 5.64665 26.25 7.19995L26.25 11.0625C26.25 12.6158 24.9908 13.875 23.4375 13.875L19.575 13.875C18.0217 13.875 16.7625 12.6158 16.7625 11.0625V7.19995Z" fill="#B3B8C2"/>
<path d="M3.75 20.2C3.75 18.6467 5.0092 17.3875 6.5625 17.3875H10.425C11.9783 17.3875 13.2375 18.6466 13.2375 20.2L13.2375 24.0624C13.2375 25.6158 11.9783 26.875 10.425 26.875L6.5625 26.875C5.0092 26.875 3.75 25.6158 3.75 24.0625L3.75 20.2Z" fill="#B3B8C2"/>
<path d="M16.7625 20.2C16.7625 18.6467 18.0217 17.3875 19.575 17.3875H23.4375C24.9908 17.3875 26.25 18.6466 26.25 20.2L26.25 24.0624C26.25 25.6158 24.9908 26.875 23.4375 26.875L19.575 26.875C18.0217 26.875 16.7625 25.6158 16.7625 24.0625V20.2Z" fill="#B3B8C2"/>
</g>
</g>
</svg>
