<svg width="25" height="26" viewBox="0 0 25 26" fill="none" xmlns="http://www.w3.org/2000/svg">
<g id="Icon">
<path fill-rule="evenodd" clip-rule="evenodd" d="M21.5331 9.03847C21.7711 9.61864 22.3354 9.99818 22.9625 10C23.8137 10.0069 24.5 10.6988 24.5 11.55L24.5 14.225C24.5 15.081 23.806 15.775 22.95 15.775C22.3229 15.7768 21.7586 16.1564 21.5206 16.7365C21.2825 17.3167 21.4174 17.9832 21.8625 18.425C22.4595 19.0368 22.4595 20.0132 21.8625 20.625L19.9875 22.5C19.3757 23.097 18.3993 23.097 17.7875 22.5C17.5053 22.201 17.1111 22.0334 16.7 22.0375C16.2868 22.0342 15.8893 22.196 15.5959 22.487C15.3025 22.7781 15.1375 23.1742 15.1375 23.5875C15.1375 24.4435 14.4435 25.1375 13.5875 25.1375L10.9125 25.1375C10.0565 25.1375 9.3625 24.4435 9.3625 23.5875C9.36251 23.1742 9.19749 22.7781 8.9041 22.487C8.61071 22.196 8.21325 22.0342 7.8 22.0375C7.38888 22.0334 6.9947 22.201 6.7125 22.5C6.10069 23.097 5.12431 23.097 4.5125 22.5L2.6375 20.625C2.04046 20.0132 2.04046 19.0368 2.6375 18.425C3.08256 17.9832 3.21753 17.3167 2.97944 16.7365C2.74135 16.1564 2.17712 15.7768 1.55 15.775C1.13891 15.775 0.744666 15.6117 0.453984 15.321C0.163303 15.0303 0 14.6361 0 14.225L0 11.55C0 10.694 0.693959 10 1.55 10C2.17712 9.99818 2.74135 9.61864 2.97944 9.03847C3.21753 8.4583 3.08256 7.79182 2.6375 7.35C2.04046 6.73819 2.04046 5.76181 2.6375 5.15L4.5125 3.275C5.12431 2.67796 6.10069 2.67796 6.7125 3.275C6.9947 3.57399 7.38888 3.74163 7.8 3.7375C8.21542 3.74086 8.61481 3.57732 8.90857 3.28357C9.20232 2.98981 9.36586 2.59042 9.3625 2.175C9.3625 1.31896 10.0565 0.625 10.9125 0.625L13.6 0.625C14.456 0.625 15.15 1.31896 15.15 2.175C15.1466 2.59042 15.3102 2.98981 15.6039 3.28357C15.8977 3.57732 16.2971 3.74086 16.7125 3.7375C17.1236 3.74163 17.5178 3.57399 17.8 3.275C18.4118 2.67796 19.3882 2.67796 20 3.275L21.875 5.15C22.472 5.76181 22.472 6.73819 21.875 7.35C21.4299 7.79182 21.295 8.4583 21.5331 9.03847ZM19.75 16.0125C20.2379 14.8228 21.3553 14.0102 22.6375 13.9125L22.6 11.8625C21.3318 11.7513 20.2319 10.9409 19.75 9.7625C19.278 8.58135 19.4941 7.23626 20.3125 6.2625L18.875 4.825C18.2654 5.33551 17.4951 5.6144 16.7 5.6125C14.9286 5.60816 13.4483 4.26294 13.275 2.5L11.225 2.5C11.0573 4.26575 9.57369 5.614 7.8 5.6125C7.00487 5.6144 6.2346 5.33551 5.625 4.825L4.225 6.2625C5.03066 7.2437 5.23232 8.5881 4.75 9.7625C4.26809 10.9409 3.16824 11.7513 1.9 11.8625L1.9 13.9125C3.16824 14.0237 4.26809 14.8341 4.75 16.0125C5.22205 17.1937 5.00587 18.5387 4.1875 19.5125L5.625 20.95C6.2346 20.4395 7.00487 20.1606 7.8 20.1625C9.57143 20.1668 11.0517 21.5121 11.225 23.275L13.275 23.275C13.4313 21.5036 14.9217 20.1491 16.7 20.1625C17.4951 20.1606 18.2654 20.4395 18.875 20.95L20.275 19.5125C19.4693 18.5313 19.2677 17.1869 19.75 16.0125Z" fill="#B3B8C2"/>
<path fill-rule="evenodd" clip-rule="evenodd" d="M7.925 12.8875C7.925 10.4989 9.86137 8.5625 12.25 8.5625C13.3971 8.5625 14.4971 9.01817 15.3082 9.82926C16.1193 10.6404 16.575 11.7404 16.575 12.8875C16.575 15.2761 14.6386 17.2125 12.25 17.2125C9.86137 17.2125 7.925 15.2761 7.925 12.8875ZM9.75 12.8875C9.75 14.2682 10.8693 15.3875 12.25 15.3875C13.6307 15.3875 14.75 14.2682 14.75 12.8875C14.75 11.5068 13.6307 10.3875 12.25 10.3875C10.8693 10.3875 9.75 11.5068 9.75 12.8875Z" fill="#B3B8C2"/>
</g>
</svg>
